<mxfile host="65bd71144e" modified="2020-11-11T04:19:31.126Z" agent="5.0 (Macintosh; Intel Mac OS X 10_15_7) AppleWebKit/537.36 (KHTML, like Gecko) Code/1.51.0 Chrome/83.0.4103.122 Electron/9.3.3 Safari/537.36" etag="35nkViUda99I57-gi6Fb" version="13.6.5" pages="27">
    <diagram id="lfLdyDGPs0YZjcrXk6En" name="Page-1">
        <mxGraphModel dx="1402" dy="860" grid="1" gridSize="10" guides="1" tooltips="1" connect="1" arrows="1" fold="1" page="1" pageScale="1" pageWidth="800" pageHeight="800" math="0" shadow="0">
            <root>
                <mxCell id="0"/>
                <mxCell id="1" parent="0"/>
                <mxCell id="2" value="100" style="ellipse;whiteSpace=wrap;html=1;aspect=fixed;fontFamily=Fira Code;fillColor=#000000;" parent="1" vertex="1">
                    <mxGeometry x="400" y="40" width="40" height="40" as="geometry"/>
                </mxCell>
            </root>
        </mxGraphModel>
    </diagram>
    <diagram name="Copy of Page-1" id="05BTL9jkyEN0CRMypmCC">
        <mxGraphModel dx="1402" dy="860" grid="1" gridSize="10" guides="1" tooltips="1" connect="1" arrows="1" fold="1" page="1" pageScale="1" pageWidth="800" pageHeight="800" math="0" shadow="0">
            <root>
                <mxCell id="UsSJgMmNNAVwGqkj0j26-0"/>
                <mxCell id="UsSJgMmNNAVwGqkj0j26-1" parent="UsSJgMmNNAVwGqkj0j26-0"/>
                <mxCell id="UsSJgMmNNAVwGqkj0j26-2" value="100" style="ellipse;whiteSpace=wrap;html=1;aspect=fixed;fontFamily=Fira Code;fillColor=#000000;" parent="UsSJgMmNNAVwGqkj0j26-1" vertex="1">
                    <mxGeometry x="400" y="40" width="40" height="40" as="geometry"/>
                </mxCell>
                <mxCell id="UsSJgMmNNAVwGqkj0j26-3" style="edgeStyle=none;rounded=0;orthogonalLoop=1;jettySize=auto;html=1;exitX=1;exitY=0;exitDx=0;exitDy=0;entryX=0;entryY=1;entryDx=0;entryDy=0;endArrow=none;endFill=0;" parent="UsSJgMmNNAVwGqkj0j26-1" source="UsSJgMmNNAVwGqkj0j26-4" target="UsSJgMmNNAVwGqkj0j26-2" edge="1">
                    <mxGeometry relative="1" as="geometry"/>
                </mxCell>
                <mxCell id="UsSJgMmNNAVwGqkj0j26-4" value="90" style="ellipse;whiteSpace=wrap;html=1;aspect=fixed;fontFamily=Fira Code;fillColor=#CC0000;" parent="UsSJgMmNNAVwGqkj0j26-1" vertex="1">
                    <mxGeometry x="160" y="120" width="40" height="40" as="geometry"/>
                </mxCell>
            </root>
        </mxGraphModel>
    </diagram>
    <diagram name="Copy of Copy of Page-1" id="FsFef6B3JnalUiG169Rl">
        <mxGraphModel dx="2202" dy="860" grid="1" gridSize="10" guides="1" tooltips="1" connect="1" arrows="1" fold="1" page="1" pageScale="1" pageWidth="800" pageHeight="800" math="0" shadow="0">
            <root>
                <mxCell id="qfoDrvGGAuHg3mer3AFx-0"/>
                <mxCell id="qfoDrvGGAuHg3mer3AFx-1" parent="qfoDrvGGAuHg3mer3AFx-0"/>
                <mxCell id="qfoDrvGGAuHg3mer3AFx-2" value="100" style="ellipse;whiteSpace=wrap;html=1;aspect=fixed;fontFamily=Fira Code;fillColor=#000000;" parent="qfoDrvGGAuHg3mer3AFx-1" vertex="1">
                    <mxGeometry x="400" y="40" width="40" height="40" as="geometry"/>
                </mxCell>
                <mxCell id="qfoDrvGGAuHg3mer3AFx-3" style="edgeStyle=none;rounded=0;orthogonalLoop=1;jettySize=auto;html=1;exitX=1;exitY=0;exitDx=0;exitDy=0;entryX=0;entryY=1;entryDx=0;entryDy=0;endArrow=none;endFill=0;" parent="qfoDrvGGAuHg3mer3AFx-1" source="qfoDrvGGAuHg3mer3AFx-4" target="qfoDrvGGAuHg3mer3AFx-2" edge="1">
                    <mxGeometry relative="1" as="geometry"/>
                </mxCell>
                <mxCell id="qfoDrvGGAuHg3mer3AFx-4" value="90" style="ellipse;whiteSpace=wrap;html=1;aspect=fixed;fontFamily=Fira Code;fillColor=#CC0000;" parent="qfoDrvGGAuHg3mer3AFx-1" vertex="1">
                    <mxGeometry x="160" y="120" width="40" height="40" as="geometry"/>
                </mxCell>
                <mxCell id="GABG70KexS8b_2_gBtw5-2" style="rounded=0;orthogonalLoop=1;jettySize=auto;html=1;exitX=1;exitY=0;exitDx=0;exitDy=0;entryX=0;entryY=1;entryDx=0;entryDy=0;endArrow=none;endFill=0;" parent="qfoDrvGGAuHg3mer3AFx-1" source="GABG70KexS8b_2_gBtw5-0" target="qfoDrvGGAuHg3mer3AFx-4" edge="1">
                    <mxGeometry relative="1" as="geometry"/>
                </mxCell>
                <mxCell id="GABG70KexS8b_2_gBtw5-0" value="80" style="ellipse;whiteSpace=wrap;html=1;aspect=fixed;fontFamily=Fira Code;fillColor=#CC0000;" parent="qfoDrvGGAuHg3mer3AFx-1" vertex="1">
                    <mxGeometry x="-40" y="200" width="40" height="40" as="geometry"/>
                </mxCell>
            </root>
        </mxGraphModel>
    </diagram>
    <diagram name="Copy of Copy of Copy of Page-1" id="UlxEL7KGe8V7f0BgDFWa">
        <mxGraphModel dx="1402" dy="860" grid="1" gridSize="10" guides="1" tooltips="1" connect="1" arrows="1" fold="1" page="1" pageScale="1" pageWidth="800" pageHeight="800" math="0" shadow="0">
            <root>
                <mxCell id="zR0er3kGjLwQT0awIh9G-0"/>
                <mxCell id="zR0er3kGjLwQT0awIh9G-1" parent="zR0er3kGjLwQT0awIh9G-0"/>
                <mxCell id="zR0er3kGjLwQT0awIh9G-8" style="edgeStyle=none;rounded=0;orthogonalLoop=1;jettySize=auto;html=1;exitX=1;exitY=1;exitDx=0;exitDy=0;entryX=0;entryY=0;entryDx=0;entryDy=0;endArrow=none;endFill=0;" parent="zR0er3kGjLwQT0awIh9G-1" source="zR0er3kGjLwQT0awIh9G-2" target="zR0er3kGjLwQT0awIh9G-4" edge="1">
                    <mxGeometry relative="1" as="geometry"/>
                </mxCell>
                <mxCell id="zR0er3kGjLwQT0awIh9G-2" value="90" style="ellipse;whiteSpace=wrap;html=1;aspect=fixed;fontFamily=Fira Code;fillColor=#CC0000;" parent="zR0er3kGjLwQT0awIh9G-1" vertex="1">
                    <mxGeometry x="400" y="40" width="40" height="40" as="geometry"/>
                </mxCell>
                <mxCell id="zR0er3kGjLwQT0awIh9G-4" value="100" style="ellipse;whiteSpace=wrap;html=1;aspect=fixed;fontFamily=Fira Code;fillColor=#000000;" parent="zR0er3kGjLwQT0awIh9G-1" vertex="1">
                    <mxGeometry x="640" y="120" width="40" height="40" as="geometry"/>
                </mxCell>
                <mxCell id="zR0er3kGjLwQT0awIh9G-7" style="edgeStyle=none;rounded=0;orthogonalLoop=1;jettySize=auto;html=1;exitX=1;exitY=0;exitDx=0;exitDy=0;entryX=0;entryY=1;entryDx=0;entryDy=0;endArrow=none;endFill=0;" parent="zR0er3kGjLwQT0awIh9G-1" source="zR0er3kGjLwQT0awIh9G-6" target="zR0er3kGjLwQT0awIh9G-2" edge="1">
                    <mxGeometry relative="1" as="geometry"/>
                </mxCell>
                <mxCell id="zR0er3kGjLwQT0awIh9G-6" value="80" style="ellipse;whiteSpace=wrap;html=1;aspect=fixed;fontFamily=Fira Code;fillColor=#CC0000;" parent="zR0er3kGjLwQT0awIh9G-1" vertex="1">
                    <mxGeometry x="160" y="120" width="40" height="40" as="geometry"/>
                </mxCell>
            </root>
        </mxGraphModel>
    </diagram>
    <diagram name="Copy of Copy of Copy of Copy of Page-1" id="MvnjGHMYUrFtOj94nvuX">
        <mxGraphModel dx="1402" dy="860" grid="1" gridSize="10" guides="1" tooltips="1" connect="1" arrows="1" fold="1" page="1" pageScale="1" pageWidth="800" pageHeight="800" math="0" shadow="0">
            <root>
                <mxCell id="k03kR0wOZCj6l0XY1-z1-0"/>
                <mxCell id="k03kR0wOZCj6l0XY1-z1-1" parent="k03kR0wOZCj6l0XY1-z1-0"/>
                <mxCell id="k03kR0wOZCj6l0XY1-z1-2" style="edgeStyle=none;rounded=0;orthogonalLoop=1;jettySize=auto;html=1;exitX=1;exitY=1;exitDx=0;exitDy=0;entryX=0;entryY=0;entryDx=0;entryDy=0;endArrow=none;endFill=0;" parent="k03kR0wOZCj6l0XY1-z1-1" source="k03kR0wOZCj6l0XY1-z1-3" target="k03kR0wOZCj6l0XY1-z1-4" edge="1">
                    <mxGeometry relative="1" as="geometry"/>
                </mxCell>
                <mxCell id="k03kR0wOZCj6l0XY1-z1-3" value="90" style="ellipse;whiteSpace=wrap;html=1;aspect=fixed;fontFamily=Fira Code;fillColor=#000000;" parent="k03kR0wOZCj6l0XY1-z1-1" vertex="1">
                    <mxGeometry x="400" y="40" width="40" height="40" as="geometry"/>
                </mxCell>
                <mxCell id="k03kR0wOZCj6l0XY1-z1-4" value="100" style="ellipse;whiteSpace=wrap;html=1;aspect=fixed;fontFamily=Fira Code;fillColor=#CC0000;" parent="k03kR0wOZCj6l0XY1-z1-1" vertex="1">
                    <mxGeometry x="640" y="120" width="40" height="40" as="geometry"/>
                </mxCell>
                <mxCell id="k03kR0wOZCj6l0XY1-z1-5" style="edgeStyle=none;rounded=0;orthogonalLoop=1;jettySize=auto;html=1;exitX=1;exitY=0;exitDx=0;exitDy=0;entryX=0;entryY=1;entryDx=0;entryDy=0;endArrow=none;endFill=0;" parent="k03kR0wOZCj6l0XY1-z1-1" source="k03kR0wOZCj6l0XY1-z1-6" target="k03kR0wOZCj6l0XY1-z1-3" edge="1">
                    <mxGeometry relative="1" as="geometry"/>
                </mxCell>
                <mxCell id="k03kR0wOZCj6l0XY1-z1-6" value="80" style="ellipse;whiteSpace=wrap;html=1;aspect=fixed;fontFamily=Fira Code;fillColor=#CC0000;" parent="k03kR0wOZCj6l0XY1-z1-1" vertex="1">
                    <mxGeometry x="160" y="120" width="40" height="40" as="geometry"/>
                </mxCell>
            </root>
        </mxGraphModel>
    </diagram>
    <diagram name="Copy of Copy of Copy of Copy of Copy of Page-1" id="0OwXDbHAFRm9fUKHtB-_">
        <mxGraphModel dx="2202" dy="860" grid="1" gridSize="10" guides="1" tooltips="1" connect="1" arrows="1" fold="1" page="1" pageScale="1" pageWidth="800" pageHeight="800" math="0" shadow="0">
            <root>
                <mxCell id="If25K9YA3amO9CaGW-9v-0"/>
                <mxCell id="If25K9YA3amO9CaGW-9v-1" parent="If25K9YA3amO9CaGW-9v-0"/>
                <mxCell id="If25K9YA3amO9CaGW-9v-2" style="edgeStyle=none;rounded=0;orthogonalLoop=1;jettySize=auto;html=1;exitX=1;exitY=1;exitDx=0;exitDy=0;entryX=0;entryY=0;entryDx=0;entryDy=0;endArrow=none;endFill=0;" parent="If25K9YA3amO9CaGW-9v-1" source="If25K9YA3amO9CaGW-9v-3" target="If25K9YA3amO9CaGW-9v-4" edge="1">
                    <mxGeometry relative="1" as="geometry"/>
                </mxCell>
                <mxCell id="If25K9YA3amO9CaGW-9v-3" value="90" style="ellipse;whiteSpace=wrap;html=1;aspect=fixed;fontFamily=Fira Code;fillColor=#000000;" parent="If25K9YA3amO9CaGW-9v-1" vertex="1">
                    <mxGeometry x="400" y="40" width="40" height="40" as="geometry"/>
                </mxCell>
                <mxCell id="If25K9YA3amO9CaGW-9v-4" value="100" style="ellipse;whiteSpace=wrap;html=1;aspect=fixed;fontFamily=Fira Code;fillColor=#CC0000;" parent="If25K9YA3amO9CaGW-9v-1" vertex="1">
                    <mxGeometry x="640" y="120" width="40" height="40" as="geometry"/>
                </mxCell>
                <mxCell id="If25K9YA3amO9CaGW-9v-5" style="edgeStyle=none;rounded=0;orthogonalLoop=1;jettySize=auto;html=1;exitX=1;exitY=0;exitDx=0;exitDy=0;entryX=0;entryY=1;entryDx=0;entryDy=0;endArrow=none;endFill=0;" parent="If25K9YA3amO9CaGW-9v-1" source="If25K9YA3amO9CaGW-9v-6" target="If25K9YA3amO9CaGW-9v-3" edge="1">
                    <mxGeometry relative="1" as="geometry"/>
                </mxCell>
                <mxCell id="If25K9YA3amO9CaGW-9v-6" value="80" style="ellipse;whiteSpace=wrap;html=1;aspect=fixed;fontFamily=Fira Code;fillColor=#CC0000;" parent="If25K9YA3amO9CaGW-9v-1" vertex="1">
                    <mxGeometry x="160" y="120" width="40" height="40" as="geometry"/>
                </mxCell>
                <mxCell id="MWxPly7xWIj8jnhKN_pc-1" style="edgeStyle=none;rounded=0;orthogonalLoop=1;jettySize=auto;html=1;exitX=1;exitY=0;exitDx=0;exitDy=0;entryX=0;entryY=1;entryDx=0;entryDy=0;endArrow=none;endFill=0;" parent="If25K9YA3amO9CaGW-9v-1" source="MWxPly7xWIj8jnhKN_pc-0" target="If25K9YA3amO9CaGW-9v-6" edge="1">
                    <mxGeometry relative="1" as="geometry"/>
                </mxCell>
                <mxCell id="MWxPly7xWIj8jnhKN_pc-0" value="70" style="ellipse;whiteSpace=wrap;html=1;aspect=fixed;fontFamily=Fira Code;fillColor=#CC0000;" parent="If25K9YA3amO9CaGW-9v-1" vertex="1">
                    <mxGeometry x="-40" y="200" width="40" height="40" as="geometry"/>
                </mxCell>
            </root>
        </mxGraphModel>
    </diagram>
    <diagram name="Copy of Copy of Copy of Copy of Copy of Copy of Page-1" id="H4NKkrTg3ckLnGd2aKtO">
        <mxGraphModel dx="2202" dy="860" grid="1" gridSize="10" guides="1" tooltips="1" connect="1" arrows="1" fold="1" page="1" pageScale="1" pageWidth="800" pageHeight="800" math="0" shadow="0">
            <root>
                <mxCell id="K2HxrxlHIARDM8VMO3RY-0"/>
                <mxCell id="K2HxrxlHIARDM8VMO3RY-1" parent="K2HxrxlHIARDM8VMO3RY-0"/>
                <mxCell id="K2HxrxlHIARDM8VMO3RY-2" style="edgeStyle=none;rounded=0;orthogonalLoop=1;jettySize=auto;html=1;exitX=1;exitY=1;exitDx=0;exitDy=0;entryX=0;entryY=0;entryDx=0;entryDy=0;endArrow=none;endFill=0;" parent="K2HxrxlHIARDM8VMO3RY-1" source="K2HxrxlHIARDM8VMO3RY-3" target="K2HxrxlHIARDM8VMO3RY-4" edge="1">
                    <mxGeometry relative="1" as="geometry"/>
                </mxCell>
                <mxCell id="K2HxrxlHIARDM8VMO3RY-3" value="90" style="ellipse;whiteSpace=wrap;html=1;aspect=fixed;fontFamily=Fira Code;fillColor=#CC0000;" parent="K2HxrxlHIARDM8VMO3RY-1" vertex="1">
                    <mxGeometry x="400" y="40" width="40" height="40" as="geometry"/>
                </mxCell>
                <mxCell id="K2HxrxlHIARDM8VMO3RY-4" value="100" style="ellipse;whiteSpace=wrap;html=1;aspect=fixed;fontFamily=Fira Code;fillColor=#000000;" parent="K2HxrxlHIARDM8VMO3RY-1" vertex="1">
                    <mxGeometry x="640" y="120" width="40" height="40" as="geometry"/>
                </mxCell>
                <mxCell id="K2HxrxlHIARDM8VMO3RY-5" style="edgeStyle=none;rounded=0;orthogonalLoop=1;jettySize=auto;html=1;exitX=1;exitY=0;exitDx=0;exitDy=0;entryX=0;entryY=1;entryDx=0;entryDy=0;endArrow=none;endFill=0;" parent="K2HxrxlHIARDM8VMO3RY-1" source="K2HxrxlHIARDM8VMO3RY-6" target="K2HxrxlHIARDM8VMO3RY-3" edge="1">
                    <mxGeometry relative="1" as="geometry"/>
                </mxCell>
                <mxCell id="K2HxrxlHIARDM8VMO3RY-6" value="80" style="ellipse;whiteSpace=wrap;html=1;aspect=fixed;fontFamily=Fira Code;fillColor=#000000;" parent="K2HxrxlHIARDM8VMO3RY-1" vertex="1">
                    <mxGeometry x="160" y="120" width="40" height="40" as="geometry"/>
                </mxCell>
                <mxCell id="K2HxrxlHIARDM8VMO3RY-7" style="edgeStyle=none;rounded=0;orthogonalLoop=1;jettySize=auto;html=1;exitX=1;exitY=0;exitDx=0;exitDy=0;entryX=0;entryY=1;entryDx=0;entryDy=0;endArrow=none;endFill=0;" parent="K2HxrxlHIARDM8VMO3RY-1" source="K2HxrxlHIARDM8VMO3RY-8" target="K2HxrxlHIARDM8VMO3RY-6" edge="1">
                    <mxGeometry relative="1" as="geometry"/>
                </mxCell>
                <mxCell id="K2HxrxlHIARDM8VMO3RY-8" value="70" style="ellipse;whiteSpace=wrap;html=1;aspect=fixed;fontFamily=Fira Code;fillColor=#CC0000;" parent="K2HxrxlHIARDM8VMO3RY-1" vertex="1">
                    <mxGeometry x="-40" y="200" width="40" height="40" as="geometry"/>
                </mxCell>
            </root>
        </mxGraphModel>
    </diagram>
    <diagram name="Copy of Copy of Copy of Copy of Copy of Copy of Copy of Page-1" id="8jLZWNoctz0M7ZPpw-HP">
        <mxGraphModel dx="2202" dy="860" grid="1" gridSize="10" guides="1" tooltips="1" connect="1" arrows="1" fold="1" page="1" pageScale="1" pageWidth="800" pageHeight="800" math="0" shadow="0">
            <root>
                <mxCell id="VVrcKM7QZDhQ9izDZc1q-0"/>
                <mxCell id="VVrcKM7QZDhQ9izDZc1q-1" parent="VVrcKM7QZDhQ9izDZc1q-0"/>
                <mxCell id="VVrcKM7QZDhQ9izDZc1q-2" style="edgeStyle=none;rounded=0;orthogonalLoop=1;jettySize=auto;html=1;exitX=1;exitY=1;exitDx=0;exitDy=0;entryX=0;entryY=0;entryDx=0;entryDy=0;endArrow=none;endFill=0;" parent="VVrcKM7QZDhQ9izDZc1q-1" source="VVrcKM7QZDhQ9izDZc1q-3" target="VVrcKM7QZDhQ9izDZc1q-4" edge="1">
                    <mxGeometry relative="1" as="geometry"/>
                </mxCell>
                <mxCell id="VVrcKM7QZDhQ9izDZc1q-3" value="90" style="ellipse;whiteSpace=wrap;html=1;aspect=fixed;fontFamily=Fira Code;fillColor=#000000;" parent="VVrcKM7QZDhQ9izDZc1q-1" vertex="1">
                    <mxGeometry x="400" y="40" width="40" height="40" as="geometry"/>
                </mxCell>
                <mxCell id="VVrcKM7QZDhQ9izDZc1q-4" value="100" style="ellipse;whiteSpace=wrap;html=1;aspect=fixed;fontFamily=Fira Code;fillColor=#000000;" parent="VVrcKM7QZDhQ9izDZc1q-1" vertex="1">
                    <mxGeometry x="640" y="120" width="40" height="40" as="geometry"/>
                </mxCell>
                <mxCell id="VVrcKM7QZDhQ9izDZc1q-5" style="edgeStyle=none;rounded=0;orthogonalLoop=1;jettySize=auto;html=1;exitX=1;exitY=0;exitDx=0;exitDy=0;entryX=0;entryY=1;entryDx=0;entryDy=0;endArrow=none;endFill=0;" parent="VVrcKM7QZDhQ9izDZc1q-1" source="VVrcKM7QZDhQ9izDZc1q-6" target="VVrcKM7QZDhQ9izDZc1q-3" edge="1">
                    <mxGeometry relative="1" as="geometry"/>
                </mxCell>
                <mxCell id="VVrcKM7QZDhQ9izDZc1q-6" value="80" style="ellipse;whiteSpace=wrap;html=1;aspect=fixed;fontFamily=Fira Code;fillColor=#000000;" parent="VVrcKM7QZDhQ9izDZc1q-1" vertex="1">
                    <mxGeometry x="160" y="120" width="40" height="40" as="geometry"/>
                </mxCell>
                <mxCell id="VVrcKM7QZDhQ9izDZc1q-7" style="edgeStyle=none;rounded=0;orthogonalLoop=1;jettySize=auto;html=1;exitX=1;exitY=0;exitDx=0;exitDy=0;entryX=0;entryY=1;entryDx=0;entryDy=0;endArrow=none;endFill=0;" parent="VVrcKM7QZDhQ9izDZc1q-1" source="VVrcKM7QZDhQ9izDZc1q-8" target="VVrcKM7QZDhQ9izDZc1q-6" edge="1">
                    <mxGeometry relative="1" as="geometry"/>
                </mxCell>
                <mxCell id="VVrcKM7QZDhQ9izDZc1q-8" value="70" style="ellipse;whiteSpace=wrap;html=1;aspect=fixed;fontFamily=Fira Code;fillColor=#CC0000;" parent="VVrcKM7QZDhQ9izDZc1q-1" vertex="1">
                    <mxGeometry x="-40" y="200" width="40" height="40" as="geometry"/>
                </mxCell>
            </root>
        </mxGraphModel>
    </diagram>
    <diagram name="Copy of Copy of Copy of Copy of Copy of Copy of Copy of Copy of Page-1" id="tBbMlg94HNvBOIfBDvNE">
        <mxGraphModel dx="2202" dy="860" grid="1" gridSize="10" guides="1" tooltips="1" connect="1" arrows="1" fold="1" page="1" pageScale="1" pageWidth="800" pageHeight="800" math="0" shadow="0">
            <root>
                <mxCell id="TD0UWCOSd--KcFX-DlpO-0"/>
                <mxCell id="TD0UWCOSd--KcFX-DlpO-1" parent="TD0UWCOSd--KcFX-DlpO-0"/>
                <mxCell id="TD0UWCOSd--KcFX-DlpO-2" style="edgeStyle=none;rounded=0;orthogonalLoop=1;jettySize=auto;html=1;exitX=1;exitY=1;exitDx=0;exitDy=0;entryX=0;entryY=0;entryDx=0;entryDy=0;endArrow=none;endFill=0;" parent="TD0UWCOSd--KcFX-DlpO-1" source="TD0UWCOSd--KcFX-DlpO-3" target="TD0UWCOSd--KcFX-DlpO-4" edge="1">
                    <mxGeometry relative="1" as="geometry"/>
                </mxCell>
                <mxCell id="TD0UWCOSd--KcFX-DlpO-3" value="90" style="ellipse;whiteSpace=wrap;html=1;aspect=fixed;fontFamily=Fira Code;fillColor=#000000;" parent="TD0UWCOSd--KcFX-DlpO-1" vertex="1">
                    <mxGeometry x="400" y="40" width="40" height="40" as="geometry"/>
                </mxCell>
                <mxCell id="TD0UWCOSd--KcFX-DlpO-4" value="100" style="ellipse;whiteSpace=wrap;html=1;aspect=fixed;fontFamily=Fira Code;fillColor=#000000;" parent="TD0UWCOSd--KcFX-DlpO-1" vertex="1">
                    <mxGeometry x="640" y="120" width="40" height="40" as="geometry"/>
                </mxCell>
                <mxCell id="TD0UWCOSd--KcFX-DlpO-5" style="edgeStyle=none;rounded=0;orthogonalLoop=1;jettySize=auto;html=1;exitX=1;exitY=0;exitDx=0;exitDy=0;entryX=0;entryY=1;entryDx=0;entryDy=0;endArrow=none;endFill=0;" parent="TD0UWCOSd--KcFX-DlpO-1" source="TD0UWCOSd--KcFX-DlpO-6" target="TD0UWCOSd--KcFX-DlpO-3" edge="1">
                    <mxGeometry relative="1" as="geometry"/>
                </mxCell>
                <mxCell id="TD0UWCOSd--KcFX-DlpO-6" value="80" style="ellipse;whiteSpace=wrap;html=1;aspect=fixed;fontFamily=Fira Code;fillColor=#000000;" parent="TD0UWCOSd--KcFX-DlpO-1" vertex="1">
                    <mxGeometry x="160" y="120" width="40" height="40" as="geometry"/>
                </mxCell>
                <mxCell id="TD0UWCOSd--KcFX-DlpO-7" style="edgeStyle=none;rounded=0;orthogonalLoop=1;jettySize=auto;html=1;exitX=1;exitY=0;exitDx=0;exitDy=0;entryX=0;entryY=1;entryDx=0;entryDy=0;endArrow=none;endFill=0;" parent="TD0UWCOSd--KcFX-DlpO-1" source="TD0UWCOSd--KcFX-DlpO-8" target="TD0UWCOSd--KcFX-DlpO-6" edge="1">
                    <mxGeometry relative="1" as="geometry"/>
                </mxCell>
                <mxCell id="TD0UWCOSd--KcFX-DlpO-8" value="70" style="ellipse;whiteSpace=wrap;html=1;aspect=fixed;fontFamily=Fira Code;fillColor=#CC0000;" parent="TD0UWCOSd--KcFX-DlpO-1" vertex="1">
                    <mxGeometry x="-40" y="200" width="40" height="40" as="geometry"/>
                </mxCell>
                <mxCell id="TD0UWCOSd--KcFX-DlpO-10" style="edgeStyle=none;rounded=0;orthogonalLoop=1;jettySize=auto;html=1;exitX=1;exitY=0;exitDx=0;exitDy=0;entryX=0;entryY=1;entryDx=0;entryDy=0;endArrow=none;endFill=0;" parent="TD0UWCOSd--KcFX-DlpO-1" source="TD0UWCOSd--KcFX-DlpO-9" target="TD0UWCOSd--KcFX-DlpO-8" edge="1">
                    <mxGeometry relative="1" as="geometry"/>
                </mxCell>
                <mxCell id="TD0UWCOSd--KcFX-DlpO-9" value="60" style="ellipse;whiteSpace=wrap;html=1;aspect=fixed;fontFamily=Fira Code;fillColor=#CC0000;" parent="TD0UWCOSd--KcFX-DlpO-1" vertex="1">
                    <mxGeometry x="-200" y="280" width="40" height="40" as="geometry"/>
                </mxCell>
            </root>
        </mxGraphModel>
    </diagram>
    <diagram name="Copy of Copy of Copy of Copy of Copy of Copy of Copy of Copy of Copy of Page-1" id="AG6HBMrC-FdKrqaFvKvV">
        <mxGraphModel dx="2202" dy="860" grid="1" gridSize="10" guides="1" tooltips="1" connect="1" arrows="1" fold="1" page="1" pageScale="1" pageWidth="800" pageHeight="800" math="0" shadow="0">
            <root>
                <mxCell id="G5gsdgvjrDep1XO2WJl8-0"/>
                <mxCell id="G5gsdgvjrDep1XO2WJl8-1" parent="G5gsdgvjrDep1XO2WJl8-0"/>
                <mxCell id="G5gsdgvjrDep1XO2WJl8-2" style="edgeStyle=none;rounded=0;orthogonalLoop=1;jettySize=auto;html=1;exitX=1;exitY=1;exitDx=0;exitDy=0;entryX=0;entryY=0;entryDx=0;entryDy=0;endArrow=none;endFill=0;" parent="G5gsdgvjrDep1XO2WJl8-1" source="G5gsdgvjrDep1XO2WJl8-3" target="G5gsdgvjrDep1XO2WJl8-4" edge="1">
                    <mxGeometry relative="1" as="geometry"/>
                </mxCell>
                <mxCell id="G5gsdgvjrDep1XO2WJl8-3" value="90" style="ellipse;whiteSpace=wrap;html=1;aspect=fixed;fontFamily=Fira Code;fillColor=#000000;" parent="G5gsdgvjrDep1XO2WJl8-1" vertex="1">
                    <mxGeometry x="400" y="40" width="40" height="40" as="geometry"/>
                </mxCell>
                <mxCell id="G5gsdgvjrDep1XO2WJl8-4" value="100" style="ellipse;whiteSpace=wrap;html=1;aspect=fixed;fontFamily=Fira Code;fillColor=#000000;" parent="G5gsdgvjrDep1XO2WJl8-1" vertex="1">
                    <mxGeometry x="640" y="120" width="40" height="40" as="geometry"/>
                </mxCell>
                <mxCell id="G5gsdgvjrDep1XO2WJl8-5" style="edgeStyle=none;rounded=0;orthogonalLoop=1;jettySize=auto;html=1;exitX=1;exitY=0;exitDx=0;exitDy=0;entryX=0;entryY=1;entryDx=0;entryDy=0;endArrow=none;endFill=0;" parent="G5gsdgvjrDep1XO2WJl8-1" source="G5gsdgvjrDep1XO2WJl8-6" target="G5gsdgvjrDep1XO2WJl8-3" edge="1">
                    <mxGeometry relative="1" as="geometry"/>
                </mxCell>
                <mxCell id="5T6XLZ7glWE4dUJSsyLa-0" style="edgeStyle=none;rounded=0;orthogonalLoop=1;jettySize=auto;html=1;exitX=0;exitY=1;exitDx=0;exitDy=0;entryX=1;entryY=0;entryDx=0;entryDy=0;endArrow=none;endFill=0;" parent="G5gsdgvjrDep1XO2WJl8-1" source="G5gsdgvjrDep1XO2WJl8-6" target="G5gsdgvjrDep1XO2WJl8-10" edge="1">
                    <mxGeometry relative="1" as="geometry"/>
                </mxCell>
                <mxCell id="5T6XLZ7glWE4dUJSsyLa-1" style="edgeStyle=none;rounded=0;orthogonalLoop=1;jettySize=auto;html=1;exitX=1;exitY=1;exitDx=0;exitDy=0;entryX=0;entryY=0;entryDx=0;entryDy=0;endArrow=none;endFill=0;" parent="G5gsdgvjrDep1XO2WJl8-1" source="G5gsdgvjrDep1XO2WJl8-6" target="G5gsdgvjrDep1XO2WJl8-8" edge="1">
                    <mxGeometry relative="1" as="geometry"/>
                </mxCell>
                <mxCell id="G5gsdgvjrDep1XO2WJl8-6" value="70" style="ellipse;whiteSpace=wrap;html=1;aspect=fixed;fontFamily=Fira Code;fillColor=#CC0000;" parent="G5gsdgvjrDep1XO2WJl8-1" vertex="1">
                    <mxGeometry x="160" y="120" width="40" height="40" as="geometry"/>
                </mxCell>
                <mxCell id="G5gsdgvjrDep1XO2WJl8-8" value="80" style="ellipse;whiteSpace=wrap;html=1;aspect=fixed;fontFamily=Fira Code;fillColor=#000000;" parent="G5gsdgvjrDep1XO2WJl8-1" vertex="1">
                    <mxGeometry x="360" y="200" width="40" height="40" as="geometry"/>
                </mxCell>
                <mxCell id="G5gsdgvjrDep1XO2WJl8-10" value="60" style="ellipse;whiteSpace=wrap;html=1;aspect=fixed;fontFamily=Fira Code;fillColor=#CC0000;" parent="G5gsdgvjrDep1XO2WJl8-1" vertex="1">
                    <mxGeometry x="-40" y="200" width="40" height="40" as="geometry"/>
                </mxCell>
            </root>
        </mxGraphModel>
    </diagram>
    <diagram name="Copy of Copy of Copy of Copy of Copy of Copy of Copy of Copy of Copy of Copy of Page-1" id="U2yOKN7ccG1f63-EqCT6">
        <mxGraphModel dx="2202" dy="860" grid="1" gridSize="10" guides="1" tooltips="1" connect="1" arrows="1" fold="1" page="1" pageScale="1" pageWidth="800" pageHeight="800" math="0" shadow="0">
            <root>
                <mxCell id="Uk6qBUCaeJ5La_rHvu4P-0"/>
                <mxCell id="Uk6qBUCaeJ5La_rHvu4P-1" parent="Uk6qBUCaeJ5La_rHvu4P-0"/>
                <mxCell id="Uk6qBUCaeJ5La_rHvu4P-2" style="edgeStyle=none;rounded=0;orthogonalLoop=1;jettySize=auto;html=1;exitX=1;exitY=1;exitDx=0;exitDy=0;entryX=0;entryY=0;entryDx=0;entryDy=0;endArrow=none;endFill=0;" parent="Uk6qBUCaeJ5La_rHvu4P-1" source="Uk6qBUCaeJ5La_rHvu4P-3" target="Uk6qBUCaeJ5La_rHvu4P-4" edge="1">
                    <mxGeometry relative="1" as="geometry"/>
                </mxCell>
                <mxCell id="Uk6qBUCaeJ5La_rHvu4P-3" value="90" style="ellipse;whiteSpace=wrap;html=1;aspect=fixed;fontFamily=Fira Code;fillColor=#000000;" parent="Uk6qBUCaeJ5La_rHvu4P-1" vertex="1">
                    <mxGeometry x="400" y="40" width="40" height="40" as="geometry"/>
                </mxCell>
                <mxCell id="Uk6qBUCaeJ5La_rHvu4P-4" value="100" style="ellipse;whiteSpace=wrap;html=1;aspect=fixed;fontFamily=Fira Code;fillColor=#000000;" parent="Uk6qBUCaeJ5La_rHvu4P-1" vertex="1">
                    <mxGeometry x="640" y="120" width="40" height="40" as="geometry"/>
                </mxCell>
                <mxCell id="Uk6qBUCaeJ5La_rHvu4P-5" style="edgeStyle=none;rounded=0;orthogonalLoop=1;jettySize=auto;html=1;exitX=1;exitY=0;exitDx=0;exitDy=0;entryX=0;entryY=1;entryDx=0;entryDy=0;endArrow=none;endFill=0;" parent="Uk6qBUCaeJ5La_rHvu4P-1" source="Uk6qBUCaeJ5La_rHvu4P-8" target="Uk6qBUCaeJ5La_rHvu4P-3" edge="1">
                    <mxGeometry relative="1" as="geometry"/>
                </mxCell>
                <mxCell id="Uk6qBUCaeJ5La_rHvu4P-6" style="edgeStyle=none;rounded=0;orthogonalLoop=1;jettySize=auto;html=1;exitX=0;exitY=1;exitDx=0;exitDy=0;entryX=1;entryY=0;entryDx=0;entryDy=0;endArrow=none;endFill=0;" parent="Uk6qBUCaeJ5La_rHvu4P-1" source="Uk6qBUCaeJ5La_rHvu4P-8" target="Uk6qBUCaeJ5La_rHvu4P-10" edge="1">
                    <mxGeometry relative="1" as="geometry"/>
                </mxCell>
                <mxCell id="Uk6qBUCaeJ5La_rHvu4P-7" style="edgeStyle=none;rounded=0;orthogonalLoop=1;jettySize=auto;html=1;exitX=1;exitY=1;exitDx=0;exitDy=0;entryX=0;entryY=0;entryDx=0;entryDy=0;endArrow=none;endFill=0;" parent="Uk6qBUCaeJ5La_rHvu4P-1" source="Uk6qBUCaeJ5La_rHvu4P-8" target="Uk6qBUCaeJ5La_rHvu4P-9" edge="1">
                    <mxGeometry relative="1" as="geometry"/>
                </mxCell>
                <mxCell id="Uk6qBUCaeJ5La_rHvu4P-8" value="70" style="ellipse;whiteSpace=wrap;html=1;aspect=fixed;fontFamily=Fira Code;fillColor=#000000;" parent="Uk6qBUCaeJ5La_rHvu4P-1" vertex="1">
                    <mxGeometry x="160" y="120" width="40" height="40" as="geometry"/>
                </mxCell>
                <mxCell id="Uk6qBUCaeJ5La_rHvu4P-9" value="80" style="ellipse;whiteSpace=wrap;html=1;aspect=fixed;fontFamily=Fira Code;fillColor=#CC0000;" parent="Uk6qBUCaeJ5La_rHvu4P-1" vertex="1">
                    <mxGeometry x="360" y="200" width="40" height="40" as="geometry"/>
                </mxCell>
                <mxCell id="Uk6qBUCaeJ5La_rHvu4P-10" value="60" style="ellipse;whiteSpace=wrap;html=1;aspect=fixed;fontFamily=Fira Code;fillColor=#CC0000;" parent="Uk6qBUCaeJ5La_rHvu4P-1" vertex="1">
                    <mxGeometry x="-40" y="200" width="40" height="40" as="geometry"/>
                </mxCell>
                <mxCell id="Dh8O16HfVo3EBszraJ4q-1" style="edgeStyle=none;rounded=0;orthogonalLoop=1;jettySize=auto;html=1;exitX=1;exitY=0;exitDx=0;exitDy=0;entryX=0;entryY=1;entryDx=0;entryDy=0;endArrow=none;endFill=0;" parent="Uk6qBUCaeJ5La_rHvu4P-1" source="Dh8O16HfVo3EBszraJ4q-0" target="Uk6qBUCaeJ5La_rHvu4P-10" edge="1">
                    <mxGeometry relative="1" as="geometry"/>
                </mxCell>
                <mxCell id="Dh8O16HfVo3EBszraJ4q-0" value="50" style="ellipse;whiteSpace=wrap;html=1;aspect=fixed;fontFamily=Fira Code;fillColor=#CC0000;" parent="Uk6qBUCaeJ5La_rHvu4P-1" vertex="1">
                    <mxGeometry x="-200" y="280" width="40" height="40" as="geometry"/>
                </mxCell>
            </root>
        </mxGraphModel>
    </diagram>
    <diagram name="Copy of Copy of Copy of Copy of Copy of Copy of Copy of Copy of Copy of Copy of Copy of Page-1" id="LJ-5w_VF8bK8ZvqyMxrL">
        <mxGraphModel dx="2202" dy="860" grid="1" gridSize="10" guides="1" tooltips="1" connect="1" arrows="1" fold="1" page="1" pageScale="1" pageWidth="800" pageHeight="800" math="0" shadow="0">
            <root>
                <mxCell id="nk8oLSv1xHZBrXNesfBZ-0"/>
                <mxCell id="nk8oLSv1xHZBrXNesfBZ-1" parent="nk8oLSv1xHZBrXNesfBZ-0"/>
                <mxCell id="nk8oLSv1xHZBrXNesfBZ-2" style="edgeStyle=none;rounded=0;orthogonalLoop=1;jettySize=auto;html=1;exitX=1;exitY=1;exitDx=0;exitDy=0;entryX=0;entryY=0;entryDx=0;entryDy=0;endArrow=none;endFill=0;" parent="nk8oLSv1xHZBrXNesfBZ-1" source="nk8oLSv1xHZBrXNesfBZ-3" target="nk8oLSv1xHZBrXNesfBZ-4" edge="1">
                    <mxGeometry relative="1" as="geometry"/>
                </mxCell>
                <mxCell id="nk8oLSv1xHZBrXNesfBZ-3" value="90" style="ellipse;whiteSpace=wrap;html=1;aspect=fixed;fontFamily=Fira Code;fillColor=#000000;" parent="nk8oLSv1xHZBrXNesfBZ-1" vertex="1">
                    <mxGeometry x="400" y="40" width="40" height="40" as="geometry"/>
                </mxCell>
                <mxCell id="nk8oLSv1xHZBrXNesfBZ-4" value="100" style="ellipse;whiteSpace=wrap;html=1;aspect=fixed;fontFamily=Fira Code;fillColor=#000000;" parent="nk8oLSv1xHZBrXNesfBZ-1" vertex="1">
                    <mxGeometry x="640" y="120" width="40" height="40" as="geometry"/>
                </mxCell>
                <mxCell id="nk8oLSv1xHZBrXNesfBZ-5" style="edgeStyle=none;rounded=0;orthogonalLoop=1;jettySize=auto;html=1;exitX=1;exitY=0;exitDx=0;exitDy=0;entryX=0;entryY=1;entryDx=0;entryDy=0;endArrow=none;endFill=0;" parent="nk8oLSv1xHZBrXNesfBZ-1" source="nk8oLSv1xHZBrXNesfBZ-8" target="nk8oLSv1xHZBrXNesfBZ-3" edge="1">
                    <mxGeometry relative="1" as="geometry"/>
                </mxCell>
                <mxCell id="nk8oLSv1xHZBrXNesfBZ-6" style="edgeStyle=none;rounded=0;orthogonalLoop=1;jettySize=auto;html=1;exitX=0;exitY=1;exitDx=0;exitDy=0;entryX=1;entryY=0;entryDx=0;entryDy=0;endArrow=none;endFill=0;" parent="nk8oLSv1xHZBrXNesfBZ-1" source="nk8oLSv1xHZBrXNesfBZ-8" target="nk8oLSv1xHZBrXNesfBZ-10" edge="1">
                    <mxGeometry relative="1" as="geometry"/>
                </mxCell>
                <mxCell id="nk8oLSv1xHZBrXNesfBZ-7" style="edgeStyle=none;rounded=0;orthogonalLoop=1;jettySize=auto;html=1;exitX=1;exitY=1;exitDx=0;exitDy=0;entryX=0;entryY=0;entryDx=0;entryDy=0;endArrow=none;endFill=0;" parent="nk8oLSv1xHZBrXNesfBZ-1" source="nk8oLSv1xHZBrXNesfBZ-8" target="nk8oLSv1xHZBrXNesfBZ-9" edge="1">
                    <mxGeometry relative="1" as="geometry"/>
                </mxCell>
                <mxCell id="nk8oLSv1xHZBrXNesfBZ-8" value="70" style="ellipse;whiteSpace=wrap;html=1;aspect=fixed;fontFamily=Fira Code;fillColor=#CC0000;" parent="nk8oLSv1xHZBrXNesfBZ-1" vertex="1">
                    <mxGeometry x="160" y="120" width="40" height="40" as="geometry"/>
                </mxCell>
                <mxCell id="nk8oLSv1xHZBrXNesfBZ-9" value="80" style="ellipse;whiteSpace=wrap;html=1;aspect=fixed;fontFamily=Fira Code;fillColor=#000000;" parent="nk8oLSv1xHZBrXNesfBZ-1" vertex="1">
                    <mxGeometry x="360" y="200" width="40" height="40" as="geometry"/>
                </mxCell>
                <mxCell id="nk8oLSv1xHZBrXNesfBZ-10" value="60" style="ellipse;whiteSpace=wrap;html=1;aspect=fixed;fontFamily=Fira Code;fillColor=#000000;" parent="nk8oLSv1xHZBrXNesfBZ-1" vertex="1">
                    <mxGeometry x="-40" y="200" width="40" height="40" as="geometry"/>
                </mxCell>
                <mxCell id="nk8oLSv1xHZBrXNesfBZ-11" style="edgeStyle=none;rounded=0;orthogonalLoop=1;jettySize=auto;html=1;exitX=1;exitY=0;exitDx=0;exitDy=0;entryX=0;entryY=1;entryDx=0;entryDy=0;endArrow=none;endFill=0;" parent="nk8oLSv1xHZBrXNesfBZ-1" source="nk8oLSv1xHZBrXNesfBZ-12" target="nk8oLSv1xHZBrXNesfBZ-10" edge="1">
                    <mxGeometry relative="1" as="geometry"/>
                </mxCell>
                <mxCell id="nk8oLSv1xHZBrXNesfBZ-12" value="50" style="ellipse;whiteSpace=wrap;html=1;aspect=fixed;fontFamily=Fira Code;fillColor=#CC0000;" parent="nk8oLSv1xHZBrXNesfBZ-1" vertex="1">
                    <mxGeometry x="-200" y="280" width="40" height="40" as="geometry"/>
                </mxCell>
            </root>
        </mxGraphModel>
    </diagram>
    <diagram name="Copy of Copy of Copy of Copy of Copy of Copy of Copy of Copy of Copy of Copy of Copy of Copy of Page-1" id="AYYvJoTWvAxC98N9X82E">
        <mxGraphModel dx="2202" dy="860" grid="1" gridSize="10" guides="1" tooltips="1" connect="1" arrows="1" fold="1" page="1" pageScale="1" pageWidth="800" pageHeight="800" math="0" shadow="0">
            <root>
                <mxCell id="ritZIORPNb9IFaJqJZmt-0"/>
                <mxCell id="ritZIORPNb9IFaJqJZmt-1" parent="ritZIORPNb9IFaJqJZmt-0"/>
                <mxCell id="ritZIORPNb9IFaJqJZmt-2" style="edgeStyle=none;rounded=0;orthogonalLoop=1;jettySize=auto;html=1;exitX=1;exitY=1;exitDx=0;exitDy=0;entryX=0;entryY=0;entryDx=0;entryDy=0;endArrow=none;endFill=0;" parent="ritZIORPNb9IFaJqJZmt-1" source="ritZIORPNb9IFaJqJZmt-3" target="ritZIORPNb9IFaJqJZmt-4" edge="1">
                    <mxGeometry relative="1" as="geometry"/>
                </mxCell>
                <mxCell id="ritZIORPNb9IFaJqJZmt-3" value="90" style="ellipse;whiteSpace=wrap;html=1;aspect=fixed;fontFamily=Fira Code;fillColor=#000000;" parent="ritZIORPNb9IFaJqJZmt-1" vertex="1">
                    <mxGeometry x="400" y="40" width="40" height="40" as="geometry"/>
                </mxCell>
                <mxCell id="ritZIORPNb9IFaJqJZmt-4" value="100" style="ellipse;whiteSpace=wrap;html=1;aspect=fixed;fontFamily=Fira Code;fillColor=#000000;" parent="ritZIORPNb9IFaJqJZmt-1" vertex="1">
                    <mxGeometry x="640" y="120" width="40" height="40" as="geometry"/>
                </mxCell>
                <mxCell id="ritZIORPNb9IFaJqJZmt-5" style="edgeStyle=none;rounded=0;orthogonalLoop=1;jettySize=auto;html=1;exitX=1;exitY=0;exitDx=0;exitDy=0;entryX=0;entryY=1;entryDx=0;entryDy=0;endArrow=none;endFill=0;" parent="ritZIORPNb9IFaJqJZmt-1" source="ritZIORPNb9IFaJqJZmt-8" target="ritZIORPNb9IFaJqJZmt-3" edge="1">
                    <mxGeometry relative="1" as="geometry"/>
                </mxCell>
                <mxCell id="ritZIORPNb9IFaJqJZmt-6" style="edgeStyle=none;rounded=0;orthogonalLoop=1;jettySize=auto;html=1;exitX=0;exitY=1;exitDx=0;exitDy=0;entryX=1;entryY=0;entryDx=0;entryDy=0;endArrow=none;endFill=0;" parent="ritZIORPNb9IFaJqJZmt-1" source="ritZIORPNb9IFaJqJZmt-8" target="ritZIORPNb9IFaJqJZmt-10" edge="1">
                    <mxGeometry relative="1" as="geometry"/>
                </mxCell>
                <mxCell id="ritZIORPNb9IFaJqJZmt-7" style="edgeStyle=none;rounded=0;orthogonalLoop=1;jettySize=auto;html=1;exitX=1;exitY=1;exitDx=0;exitDy=0;entryX=0;entryY=0;entryDx=0;entryDy=0;endArrow=none;endFill=0;" parent="ritZIORPNb9IFaJqJZmt-1" source="ritZIORPNb9IFaJqJZmt-8" target="ritZIORPNb9IFaJqJZmt-9" edge="1">
                    <mxGeometry relative="1" as="geometry"/>
                </mxCell>
                <mxCell id="ritZIORPNb9IFaJqJZmt-8" value="70" style="ellipse;whiteSpace=wrap;html=1;aspect=fixed;fontFamily=Fira Code;fillColor=#CC0000;" parent="ritZIORPNb9IFaJqJZmt-1" vertex="1">
                    <mxGeometry x="160" y="120" width="40" height="40" as="geometry"/>
                </mxCell>
                <mxCell id="ritZIORPNb9IFaJqJZmt-9" value="80" style="ellipse;whiteSpace=wrap;html=1;aspect=fixed;fontFamily=Fira Code;fillColor=#000000;" parent="ritZIORPNb9IFaJqJZmt-1" vertex="1">
                    <mxGeometry x="360" y="200" width="40" height="40" as="geometry"/>
                </mxCell>
                <mxCell id="ritZIORPNb9IFaJqJZmt-10" value="60" style="ellipse;whiteSpace=wrap;html=1;aspect=fixed;fontFamily=Fira Code;fillColor=#000000;" parent="ritZIORPNb9IFaJqJZmt-1" vertex="1">
                    <mxGeometry x="-40" y="200" width="40" height="40" as="geometry"/>
                </mxCell>
                <mxCell id="ritZIORPNb9IFaJqJZmt-11" style="edgeStyle=none;rounded=0;orthogonalLoop=1;jettySize=auto;html=1;exitX=1;exitY=0;exitDx=0;exitDy=0;entryX=0;entryY=1;entryDx=0;entryDy=0;endArrow=none;endFill=0;" parent="ritZIORPNb9IFaJqJZmt-1" source="ritZIORPNb9IFaJqJZmt-12" target="ritZIORPNb9IFaJqJZmt-10" edge="1">
                    <mxGeometry relative="1" as="geometry"/>
                </mxCell>
                <mxCell id="ritZIORPNb9IFaJqJZmt-12" value="50" style="ellipse;whiteSpace=wrap;html=1;aspect=fixed;fontFamily=Fira Code;fillColor=#CC0000;" parent="ritZIORPNb9IFaJqJZmt-1" vertex="1">
                    <mxGeometry x="-200" y="280" width="40" height="40" as="geometry"/>
                </mxCell>
                <mxCell id="ritZIORPNb9IFaJqJZmt-14" style="edgeStyle=none;rounded=0;orthogonalLoop=1;jettySize=auto;html=1;exitX=1;exitY=0;exitDx=0;exitDy=0;entryX=0;entryY=1;entryDx=0;entryDy=0;endArrow=none;endFill=0;" parent="ritZIORPNb9IFaJqJZmt-1" source="ritZIORPNb9IFaJqJZmt-13" target="ritZIORPNb9IFaJqJZmt-12" edge="1">
                    <mxGeometry relative="1" as="geometry"/>
                </mxCell>
                <mxCell id="ritZIORPNb9IFaJqJZmt-13" value="40" style="ellipse;whiteSpace=wrap;html=1;aspect=fixed;fontFamily=Fira Code;fillColor=#CC0000;" parent="ritZIORPNb9IFaJqJZmt-1" vertex="1">
                    <mxGeometry x="-320" y="360" width="40" height="40" as="geometry"/>
                </mxCell>
            </root>
        </mxGraphModel>
    </diagram>
    <diagram name="Copy of Copy of Copy of Copy of Copy of Copy of Copy of Copy of Copy of Copy of Copy of Copy of Copy of Page-1" id="XasBmXNAzTnEdZdJ9PNF">
        <mxGraphModel dx="2202" dy="860" grid="1" gridSize="10" guides="1" tooltips="1" connect="1" arrows="1" fold="1" page="1" pageScale="1" pageWidth="800" pageHeight="800" math="0" shadow="0">
            <root>
                <mxCell id="fFPSuLdPV-lUR8t0lI4B-0"/>
                <mxCell id="fFPSuLdPV-lUR8t0lI4B-1" parent="fFPSuLdPV-lUR8t0lI4B-0"/>
                <mxCell id="fFPSuLdPV-lUR8t0lI4B-2" style="edgeStyle=none;rounded=0;orthogonalLoop=1;jettySize=auto;html=1;exitX=1;exitY=1;exitDx=0;exitDy=0;entryX=0;entryY=0;entryDx=0;entryDy=0;endArrow=none;endFill=0;" parent="fFPSuLdPV-lUR8t0lI4B-1" source="fFPSuLdPV-lUR8t0lI4B-3" target="fFPSuLdPV-lUR8t0lI4B-4" edge="1">
                    <mxGeometry relative="1" as="geometry"/>
                </mxCell>
                <mxCell id="fFPSuLdPV-lUR8t0lI4B-3" value="90" style="ellipse;whiteSpace=wrap;html=1;aspect=fixed;fontFamily=Fira Code;fillColor=#000000;" parent="fFPSuLdPV-lUR8t0lI4B-1" vertex="1">
                    <mxGeometry x="400" y="40" width="40" height="40" as="geometry"/>
                </mxCell>
                <mxCell id="fFPSuLdPV-lUR8t0lI4B-4" value="100" style="ellipse;whiteSpace=wrap;html=1;aspect=fixed;fontFamily=Fira Code;fillColor=#000000;" parent="fFPSuLdPV-lUR8t0lI4B-1" vertex="1">
                    <mxGeometry x="640" y="120" width="40" height="40" as="geometry"/>
                </mxCell>
                <mxCell id="fFPSuLdPV-lUR8t0lI4B-5" style="edgeStyle=none;rounded=0;orthogonalLoop=1;jettySize=auto;html=1;exitX=1;exitY=0;exitDx=0;exitDy=0;entryX=0;entryY=1;entryDx=0;entryDy=0;endArrow=none;endFill=0;" parent="fFPSuLdPV-lUR8t0lI4B-1" source="fFPSuLdPV-lUR8t0lI4B-8" target="fFPSuLdPV-lUR8t0lI4B-3" edge="1">
                    <mxGeometry relative="1" as="geometry"/>
                </mxCell>
                <mxCell id="fFPSuLdPV-lUR8t0lI4B-6" style="edgeStyle=none;rounded=0;orthogonalLoop=1;jettySize=auto;html=1;exitX=0;exitY=1;exitDx=0;exitDy=0;entryX=1;entryY=0;entryDx=0;entryDy=0;endArrow=none;endFill=0;" parent="fFPSuLdPV-lUR8t0lI4B-1" source="fFPSuLdPV-lUR8t0lI4B-8" target="fFPSuLdPV-lUR8t0lI4B-10" edge="1">
                    <mxGeometry relative="1" as="geometry"/>
                </mxCell>
                <mxCell id="fFPSuLdPV-lUR8t0lI4B-7" style="edgeStyle=none;rounded=0;orthogonalLoop=1;jettySize=auto;html=1;exitX=1;exitY=1;exitDx=0;exitDy=0;entryX=0;entryY=0;entryDx=0;entryDy=0;endArrow=none;endFill=0;" parent="fFPSuLdPV-lUR8t0lI4B-1" source="fFPSuLdPV-lUR8t0lI4B-8" target="fFPSuLdPV-lUR8t0lI4B-9" edge="1">
                    <mxGeometry relative="1" as="geometry"/>
                </mxCell>
                <mxCell id="fFPSuLdPV-lUR8t0lI4B-8" value="70" style="ellipse;whiteSpace=wrap;html=1;aspect=fixed;fontFamily=Fira Code;fillColor=#CC0000;" parent="fFPSuLdPV-lUR8t0lI4B-1" vertex="1">
                    <mxGeometry x="160" y="120" width="40" height="40" as="geometry"/>
                </mxCell>
                <mxCell id="fFPSuLdPV-lUR8t0lI4B-9" value="80" style="ellipse;whiteSpace=wrap;html=1;aspect=fixed;fontFamily=Fira Code;fillColor=#000000;" parent="fFPSuLdPV-lUR8t0lI4B-1" vertex="1">
                    <mxGeometry x="360" y="200" width="40" height="40" as="geometry"/>
                </mxCell>
                <mxCell id="ljKFAnsVIzTECMTXFrk8-1" style="edgeStyle=none;rounded=0;orthogonalLoop=1;jettySize=auto;html=1;exitX=1;exitY=1;exitDx=0;exitDy=0;entryX=0;entryY=0;entryDx=0;entryDy=0;endArrow=none;endFill=0;" parent="fFPSuLdPV-lUR8t0lI4B-1" source="fFPSuLdPV-lUR8t0lI4B-10" target="fFPSuLdPV-lUR8t0lI4B-12" edge="1">
                    <mxGeometry relative="1" as="geometry"/>
                </mxCell>
                <mxCell id="fFPSuLdPV-lUR8t0lI4B-10" value="50" style="ellipse;whiteSpace=wrap;html=1;aspect=fixed;fontFamily=Fira Code;fillColor=#CC0000;" parent="fFPSuLdPV-lUR8t0lI4B-1" vertex="1">
                    <mxGeometry x="-40" y="200" width="40" height="40" as="geometry"/>
                </mxCell>
                <mxCell id="fFPSuLdPV-lUR8t0lI4B-12" value="60" style="ellipse;whiteSpace=wrap;html=1;aspect=fixed;fontFamily=Fira Code;fillColor=#000000;" parent="fFPSuLdPV-lUR8t0lI4B-1" vertex="1">
                    <mxGeometry x="120" y="280" width="40" height="40" as="geometry"/>
                </mxCell>
                <mxCell id="ljKFAnsVIzTECMTXFrk8-0" style="edgeStyle=none;rounded=0;orthogonalLoop=1;jettySize=auto;html=1;exitX=1;exitY=0;exitDx=0;exitDy=0;entryX=0;entryY=1;entryDx=0;entryDy=0;endArrow=none;endFill=0;" parent="fFPSuLdPV-lUR8t0lI4B-1" source="fFPSuLdPV-lUR8t0lI4B-14" target="fFPSuLdPV-lUR8t0lI4B-10" edge="1">
                    <mxGeometry relative="1" as="geometry"/>
                </mxCell>
                <mxCell id="fFPSuLdPV-lUR8t0lI4B-14" value="40" style="ellipse;whiteSpace=wrap;html=1;aspect=fixed;fontFamily=Fira Code;fillColor=#CC0000;" parent="fFPSuLdPV-lUR8t0lI4B-1" vertex="1">
                    <mxGeometry x="-200" y="280" width="40" height="40" as="geometry"/>
                </mxCell>
            </root>
        </mxGraphModel>
    </diagram>
    <diagram name="Copy of Copy of Copy of Copy of Copy of Copy of Copy of Copy of Copy of Copy of Copy of Copy of Copy of Copy of Page-1" id="FCUQqM7cK0Jrhp1xgW4o">
        <mxGraphModel dx="2202" dy="860" grid="1" gridSize="10" guides="1" tooltips="1" connect="1" arrows="1" fold="1" page="1" pageScale="1" pageWidth="800" pageHeight="800" math="0" shadow="0">
            <root>
                <mxCell id="fO6uqANwtm_3d8W4ckqg-0"/>
                <mxCell id="fO6uqANwtm_3d8W4ckqg-1" parent="fO6uqANwtm_3d8W4ckqg-0"/>
                <mxCell id="fO6uqANwtm_3d8W4ckqg-2" style="edgeStyle=none;rounded=0;orthogonalLoop=1;jettySize=auto;html=1;exitX=1;exitY=1;exitDx=0;exitDy=0;entryX=0;entryY=0;entryDx=0;entryDy=0;endArrow=none;endFill=0;" parent="fO6uqANwtm_3d8W4ckqg-1" source="fO6uqANwtm_3d8W4ckqg-3" target="fO6uqANwtm_3d8W4ckqg-4" edge="1">
                    <mxGeometry relative="1" as="geometry"/>
                </mxCell>
                <mxCell id="fO6uqANwtm_3d8W4ckqg-3" value="90" style="ellipse;whiteSpace=wrap;html=1;aspect=fixed;fontFamily=Fira Code;fillColor=#000000;" parent="fO6uqANwtm_3d8W4ckqg-1" vertex="1">
                    <mxGeometry x="400" y="40" width="40" height="40" as="geometry"/>
                </mxCell>
                <mxCell id="fO6uqANwtm_3d8W4ckqg-4" value="100" style="ellipse;whiteSpace=wrap;html=1;aspect=fixed;fontFamily=Fira Code;fillColor=#000000;" parent="fO6uqANwtm_3d8W4ckqg-1" vertex="1">
                    <mxGeometry x="640" y="120" width="40" height="40" as="geometry"/>
                </mxCell>
                <mxCell id="fO6uqANwtm_3d8W4ckqg-5" style="edgeStyle=none;rounded=0;orthogonalLoop=1;jettySize=auto;html=1;exitX=1;exitY=0;exitDx=0;exitDy=0;entryX=0;entryY=1;entryDx=0;entryDy=0;endArrow=none;endFill=0;" parent="fO6uqANwtm_3d8W4ckqg-1" source="fO6uqANwtm_3d8W4ckqg-8" target="fO6uqANwtm_3d8W4ckqg-3" edge="1">
                    <mxGeometry relative="1" as="geometry"/>
                </mxCell>
                <mxCell id="fO6uqANwtm_3d8W4ckqg-6" style="edgeStyle=none;rounded=0;orthogonalLoop=1;jettySize=auto;html=1;exitX=0;exitY=1;exitDx=0;exitDy=0;entryX=1;entryY=0;entryDx=0;entryDy=0;endArrow=none;endFill=0;" parent="fO6uqANwtm_3d8W4ckqg-1" source="fO6uqANwtm_3d8W4ckqg-8" target="fO6uqANwtm_3d8W4ckqg-11" edge="1">
                    <mxGeometry relative="1" as="geometry"/>
                </mxCell>
                <mxCell id="fO6uqANwtm_3d8W4ckqg-7" style="edgeStyle=none;rounded=0;orthogonalLoop=1;jettySize=auto;html=1;exitX=1;exitY=1;exitDx=0;exitDy=0;entryX=0;entryY=0;entryDx=0;entryDy=0;endArrow=none;endFill=0;" parent="fO6uqANwtm_3d8W4ckqg-1" source="fO6uqANwtm_3d8W4ckqg-8" target="fO6uqANwtm_3d8W4ckqg-9" edge="1">
                    <mxGeometry relative="1" as="geometry"/>
                </mxCell>
                <mxCell id="fO6uqANwtm_3d8W4ckqg-8" value="70" style="ellipse;whiteSpace=wrap;html=1;aspect=fixed;fontFamily=Fira Code;fillColor=#CC0000;" parent="fO6uqANwtm_3d8W4ckqg-1" vertex="1">
                    <mxGeometry x="160" y="120" width="40" height="40" as="geometry"/>
                </mxCell>
                <mxCell id="fO6uqANwtm_3d8W4ckqg-9" value="80" style="ellipse;whiteSpace=wrap;html=1;aspect=fixed;fontFamily=Fira Code;fillColor=#000000;" parent="fO6uqANwtm_3d8W4ckqg-1" vertex="1">
                    <mxGeometry x="360" y="200" width="40" height="40" as="geometry"/>
                </mxCell>
                <mxCell id="fO6uqANwtm_3d8W4ckqg-10" style="edgeStyle=none;rounded=0;orthogonalLoop=1;jettySize=auto;html=1;exitX=1;exitY=1;exitDx=0;exitDy=0;entryX=0;entryY=0;entryDx=0;entryDy=0;endArrow=none;endFill=0;" parent="fO6uqANwtm_3d8W4ckqg-1" source="fO6uqANwtm_3d8W4ckqg-11" target="fO6uqANwtm_3d8W4ckqg-12" edge="1">
                    <mxGeometry relative="1" as="geometry"/>
                </mxCell>
                <mxCell id="fO6uqANwtm_3d8W4ckqg-11" value="50" style="ellipse;whiteSpace=wrap;html=1;aspect=fixed;fontFamily=Fira Code;fillColor=#000000;" parent="fO6uqANwtm_3d8W4ckqg-1" vertex="1">
                    <mxGeometry x="-40" y="200" width="40" height="40" as="geometry"/>
                </mxCell>
                <mxCell id="fO6uqANwtm_3d8W4ckqg-12" value="60" style="ellipse;whiteSpace=wrap;html=1;aspect=fixed;fontFamily=Fira Code;fillColor=#CC0000;" parent="fO6uqANwtm_3d8W4ckqg-1" vertex="1">
                    <mxGeometry x="120" y="280" width="40" height="40" as="geometry"/>
                </mxCell>
                <mxCell id="fO6uqANwtm_3d8W4ckqg-13" style="edgeStyle=none;rounded=0;orthogonalLoop=1;jettySize=auto;html=1;exitX=1;exitY=0;exitDx=0;exitDy=0;entryX=0;entryY=1;entryDx=0;entryDy=0;endArrow=none;endFill=0;" parent="fO6uqANwtm_3d8W4ckqg-1" source="fO6uqANwtm_3d8W4ckqg-14" target="fO6uqANwtm_3d8W4ckqg-11" edge="1">
                    <mxGeometry relative="1" as="geometry"/>
                </mxCell>
                <mxCell id="fO6uqANwtm_3d8W4ckqg-14" value="40" style="ellipse;whiteSpace=wrap;html=1;aspect=fixed;fontFamily=Fira Code;fillColor=#CC0000;" parent="fO6uqANwtm_3d8W4ckqg-1" vertex="1">
                    <mxGeometry x="-200" y="280" width="40" height="40" as="geometry"/>
                </mxCell>
            </root>
        </mxGraphModel>
    </diagram>
    <diagram name="Copy of Copy of Copy of Copy of Copy of Copy of Copy of Copy of Copy of Copy of Copy of Copy of Copy of Copy of Copy of Page-1" id="FohTvZO-8o8cUP-fU0-K">
        <mxGraphModel dx="2202" dy="860" grid="1" gridSize="10" guides="1" tooltips="1" connect="1" arrows="1" fold="1" page="1" pageScale="1" pageWidth="800" pageHeight="800" math="0" shadow="0">
            <root>
                <mxCell id="U54nTUtue1dS8dFZLTf3-0"/>
                <mxCell id="U54nTUtue1dS8dFZLTf3-1" parent="U54nTUtue1dS8dFZLTf3-0"/>
                <mxCell id="U54nTUtue1dS8dFZLTf3-2" style="edgeStyle=none;rounded=0;orthogonalLoop=1;jettySize=auto;html=1;exitX=1;exitY=1;exitDx=0;exitDy=0;entryX=0;entryY=0;entryDx=0;entryDy=0;endArrow=none;endFill=0;" parent="U54nTUtue1dS8dFZLTf3-1" source="U54nTUtue1dS8dFZLTf3-3" target="U54nTUtue1dS8dFZLTf3-4" edge="1">
                    <mxGeometry relative="1" as="geometry"/>
                </mxCell>
                <mxCell id="U54nTUtue1dS8dFZLTf3-3" value="90" style="ellipse;whiteSpace=wrap;html=1;aspect=fixed;fontFamily=Fira Code;fillColor=#000000;" parent="U54nTUtue1dS8dFZLTf3-1" vertex="1">
                    <mxGeometry x="400" y="40" width="40" height="40" as="geometry"/>
                </mxCell>
                <mxCell id="U54nTUtue1dS8dFZLTf3-4" value="100" style="ellipse;whiteSpace=wrap;html=1;aspect=fixed;fontFamily=Fira Code;fillColor=#000000;" parent="U54nTUtue1dS8dFZLTf3-1" vertex="1">
                    <mxGeometry x="640" y="120" width="40" height="40" as="geometry"/>
                </mxCell>
                <mxCell id="U54nTUtue1dS8dFZLTf3-5" style="edgeStyle=none;rounded=0;orthogonalLoop=1;jettySize=auto;html=1;exitX=1;exitY=0;exitDx=0;exitDy=0;entryX=0;entryY=1;entryDx=0;entryDy=0;endArrow=none;endFill=0;" parent="U54nTUtue1dS8dFZLTf3-1" source="U54nTUtue1dS8dFZLTf3-8" target="U54nTUtue1dS8dFZLTf3-3" edge="1">
                    <mxGeometry relative="1" as="geometry"/>
                </mxCell>
                <mxCell id="U54nTUtue1dS8dFZLTf3-6" style="edgeStyle=none;rounded=0;orthogonalLoop=1;jettySize=auto;html=1;exitX=0;exitY=1;exitDx=0;exitDy=0;entryX=1;entryY=0;entryDx=0;entryDy=0;endArrow=none;endFill=0;" parent="U54nTUtue1dS8dFZLTf3-1" source="U54nTUtue1dS8dFZLTf3-8" target="U54nTUtue1dS8dFZLTf3-11" edge="1">
                    <mxGeometry relative="1" as="geometry"/>
                </mxCell>
                <mxCell id="U54nTUtue1dS8dFZLTf3-7" style="edgeStyle=none;rounded=0;orthogonalLoop=1;jettySize=auto;html=1;exitX=1;exitY=1;exitDx=0;exitDy=0;entryX=0;entryY=0;entryDx=0;entryDy=0;endArrow=none;endFill=0;" parent="U54nTUtue1dS8dFZLTf3-1" source="U54nTUtue1dS8dFZLTf3-8" target="U54nTUtue1dS8dFZLTf3-9" edge="1">
                    <mxGeometry relative="1" as="geometry"/>
                </mxCell>
                <mxCell id="U54nTUtue1dS8dFZLTf3-8" value="70" style="ellipse;whiteSpace=wrap;html=1;aspect=fixed;fontFamily=Fira Code;fillColor=#CC0000;" parent="U54nTUtue1dS8dFZLTf3-1" vertex="1">
                    <mxGeometry x="160" y="120" width="40" height="40" as="geometry"/>
                </mxCell>
                <mxCell id="U54nTUtue1dS8dFZLTf3-9" value="80" style="ellipse;whiteSpace=wrap;html=1;aspect=fixed;fontFamily=Fira Code;fillColor=#000000;" parent="U54nTUtue1dS8dFZLTf3-1" vertex="1">
                    <mxGeometry x="360" y="200" width="40" height="40" as="geometry"/>
                </mxCell>
                <mxCell id="U54nTUtue1dS8dFZLTf3-10" style="edgeStyle=none;rounded=0;orthogonalLoop=1;jettySize=auto;html=1;exitX=1;exitY=1;exitDx=0;exitDy=0;entryX=0;entryY=0;entryDx=0;entryDy=0;endArrow=none;endFill=0;" parent="U54nTUtue1dS8dFZLTf3-1" source="U54nTUtue1dS8dFZLTf3-11" target="U54nTUtue1dS8dFZLTf3-12" edge="1">
                    <mxGeometry relative="1" as="geometry"/>
                </mxCell>
                <mxCell id="U54nTUtue1dS8dFZLTf3-11" value="50" style="ellipse;whiteSpace=wrap;html=1;aspect=fixed;fontFamily=Fira Code;fillColor=#000000;" parent="U54nTUtue1dS8dFZLTf3-1" vertex="1">
                    <mxGeometry x="-40" y="200" width="40" height="40" as="geometry"/>
                </mxCell>
                <mxCell id="U54nTUtue1dS8dFZLTf3-12" value="60" style="ellipse;whiteSpace=wrap;html=1;aspect=fixed;fontFamily=Fira Code;fillColor=#CC0000;" parent="U54nTUtue1dS8dFZLTf3-1" vertex="1">
                    <mxGeometry x="120" y="280" width="40" height="40" as="geometry"/>
                </mxCell>
                <mxCell id="U54nTUtue1dS8dFZLTf3-13" style="edgeStyle=none;rounded=0;orthogonalLoop=1;jettySize=auto;html=1;exitX=1;exitY=0;exitDx=0;exitDy=0;entryX=0;entryY=1;entryDx=0;entryDy=0;endArrow=none;endFill=0;" parent="U54nTUtue1dS8dFZLTf3-1" source="U54nTUtue1dS8dFZLTf3-14" target="U54nTUtue1dS8dFZLTf3-11" edge="1">
                    <mxGeometry relative="1" as="geometry"/>
                </mxCell>
                <mxCell id="U54nTUtue1dS8dFZLTf3-16" style="edgeStyle=none;rounded=0;orthogonalLoop=1;jettySize=auto;html=1;exitX=0;exitY=1;exitDx=0;exitDy=0;entryX=1;entryY=0;entryDx=0;entryDy=0;endArrow=none;endFill=0;" parent="U54nTUtue1dS8dFZLTf3-1" source="U54nTUtue1dS8dFZLTf3-14" target="U54nTUtue1dS8dFZLTf3-15" edge="1">
                    <mxGeometry relative="1" as="geometry"/>
                </mxCell>
                <mxCell id="U54nTUtue1dS8dFZLTf3-14" value="40" style="ellipse;whiteSpace=wrap;html=1;aspect=fixed;fontFamily=Fira Code;fillColor=#CC0000;" parent="U54nTUtue1dS8dFZLTf3-1" vertex="1">
                    <mxGeometry x="-200" y="280" width="40" height="40" as="geometry"/>
                </mxCell>
                <mxCell id="U54nTUtue1dS8dFZLTf3-15" value="30" style="ellipse;whiteSpace=wrap;html=1;aspect=fixed;fontFamily=Fira Code;fillColor=#CC0000;" parent="U54nTUtue1dS8dFZLTf3-1" vertex="1">
                    <mxGeometry x="-320" y="360" width="40" height="40" as="geometry"/>
                </mxCell>
            </root>
        </mxGraphModel>
    </diagram>
    <diagram name="Copy of Copy of Copy of Copy of Copy of Copy of Copy of Copy of Copy of Copy of Copy of Copy of Copy of Copy of Copy of Copy of Page-1" id="2jNh3aZ5XknA2RUc19sV">
        <mxGraphModel dx="2202" dy="860" grid="1" gridSize="10" guides="1" tooltips="1" connect="1" arrows="1" fold="1" page="1" pageScale="1" pageWidth="800" pageHeight="800" math="0" shadow="0">
            <root>
                <mxCell id="dVXYRCgGDvTtOGV9DusT-0"/>
                <mxCell id="dVXYRCgGDvTtOGV9DusT-1" parent="dVXYRCgGDvTtOGV9DusT-0"/>
                <mxCell id="dVXYRCgGDvTtOGV9DusT-2" style="edgeStyle=none;rounded=0;orthogonalLoop=1;jettySize=auto;html=1;exitX=1;exitY=1;exitDx=0;exitDy=0;entryX=0;entryY=0;entryDx=0;entryDy=0;endArrow=none;endFill=0;" parent="dVXYRCgGDvTtOGV9DusT-1" source="dVXYRCgGDvTtOGV9DusT-3" target="dVXYRCgGDvTtOGV9DusT-4" edge="1">
                    <mxGeometry relative="1" as="geometry"/>
                </mxCell>
                <mxCell id="dVXYRCgGDvTtOGV9DusT-3" value="90" style="ellipse;whiteSpace=wrap;html=1;aspect=fixed;fontFamily=Fira Code;fillColor=#000000;" parent="dVXYRCgGDvTtOGV9DusT-1" vertex="1">
                    <mxGeometry x="400" y="40" width="40" height="40" as="geometry"/>
                </mxCell>
                <mxCell id="dVXYRCgGDvTtOGV9DusT-4" value="100" style="ellipse;whiteSpace=wrap;html=1;aspect=fixed;fontFamily=Fira Code;fillColor=#000000;" parent="dVXYRCgGDvTtOGV9DusT-1" vertex="1">
                    <mxGeometry x="640" y="120" width="40" height="40" as="geometry"/>
                </mxCell>
                <mxCell id="dVXYRCgGDvTtOGV9DusT-5" style="edgeStyle=none;rounded=0;orthogonalLoop=1;jettySize=auto;html=1;exitX=1;exitY=0;exitDx=0;exitDy=0;entryX=0;entryY=1;entryDx=0;entryDy=0;endArrow=none;endFill=0;" parent="dVXYRCgGDvTtOGV9DusT-1" source="dVXYRCgGDvTtOGV9DusT-8" target="dVXYRCgGDvTtOGV9DusT-3" edge="1">
                    <mxGeometry relative="1" as="geometry"/>
                </mxCell>
                <mxCell id="dVXYRCgGDvTtOGV9DusT-6" style="edgeStyle=none;rounded=0;orthogonalLoop=1;jettySize=auto;html=1;exitX=0;exitY=1;exitDx=0;exitDy=0;entryX=1;entryY=0;entryDx=0;entryDy=0;endArrow=none;endFill=0;" parent="dVXYRCgGDvTtOGV9DusT-1" source="dVXYRCgGDvTtOGV9DusT-8" target="dVXYRCgGDvTtOGV9DusT-11" edge="1">
                    <mxGeometry relative="1" as="geometry"/>
                </mxCell>
                <mxCell id="dVXYRCgGDvTtOGV9DusT-7" style="edgeStyle=none;rounded=0;orthogonalLoop=1;jettySize=auto;html=1;exitX=1;exitY=1;exitDx=0;exitDy=0;entryX=0;entryY=0;entryDx=0;entryDy=0;endArrow=none;endFill=0;" parent="dVXYRCgGDvTtOGV9DusT-1" source="dVXYRCgGDvTtOGV9DusT-8" target="dVXYRCgGDvTtOGV9DusT-9" edge="1">
                    <mxGeometry relative="1" as="geometry"/>
                </mxCell>
                <mxCell id="dVXYRCgGDvTtOGV9DusT-8" value="70" style="ellipse;whiteSpace=wrap;html=1;aspect=fixed;fontFamily=Fira Code;fillColor=#CC0000;" parent="dVXYRCgGDvTtOGV9DusT-1" vertex="1">
                    <mxGeometry x="160" y="120" width="40" height="40" as="geometry"/>
                </mxCell>
                <mxCell id="dVXYRCgGDvTtOGV9DusT-9" value="80" style="ellipse;whiteSpace=wrap;html=1;aspect=fixed;fontFamily=Fira Code;fillColor=#000000;" parent="dVXYRCgGDvTtOGV9DusT-1" vertex="1">
                    <mxGeometry x="360" y="200" width="40" height="40" as="geometry"/>
                </mxCell>
                <mxCell id="dVXYRCgGDvTtOGV9DusT-10" style="edgeStyle=none;rounded=0;orthogonalLoop=1;jettySize=auto;html=1;exitX=1;exitY=1;exitDx=0;exitDy=0;entryX=0;entryY=0;entryDx=0;entryDy=0;endArrow=none;endFill=0;" parent="dVXYRCgGDvTtOGV9DusT-1" source="dVXYRCgGDvTtOGV9DusT-11" target="dVXYRCgGDvTtOGV9DusT-12" edge="1">
                    <mxGeometry relative="1" as="geometry"/>
                </mxCell>
                <mxCell id="dVXYRCgGDvTtOGV9DusT-11" value="50" style="ellipse;whiteSpace=wrap;html=1;aspect=fixed;fontFamily=Fira Code;fillColor=#CC0000;" parent="dVXYRCgGDvTtOGV9DusT-1" vertex="1">
                    <mxGeometry x="-40" y="200" width="40" height="40" as="geometry"/>
                </mxCell>
                <mxCell id="dVXYRCgGDvTtOGV9DusT-12" value="60" style="ellipse;whiteSpace=wrap;html=1;aspect=fixed;fontFamily=Fira Code;fillColor=#000000;" parent="dVXYRCgGDvTtOGV9DusT-1" vertex="1">
                    <mxGeometry x="120" y="280" width="40" height="40" as="geometry"/>
                </mxCell>
                <mxCell id="dVXYRCgGDvTtOGV9DusT-13" style="edgeStyle=none;rounded=0;orthogonalLoop=1;jettySize=auto;html=1;exitX=1;exitY=0;exitDx=0;exitDy=0;entryX=0;entryY=1;entryDx=0;entryDy=0;endArrow=none;endFill=0;" parent="dVXYRCgGDvTtOGV9DusT-1" source="dVXYRCgGDvTtOGV9DusT-15" target="dVXYRCgGDvTtOGV9DusT-11" edge="1">
                    <mxGeometry relative="1" as="geometry"/>
                </mxCell>
                <mxCell id="dVXYRCgGDvTtOGV9DusT-14" style="edgeStyle=none;rounded=0;orthogonalLoop=1;jettySize=auto;html=1;exitX=0;exitY=1;exitDx=0;exitDy=0;entryX=1;entryY=0;entryDx=0;entryDy=0;endArrow=none;endFill=0;" parent="dVXYRCgGDvTtOGV9DusT-1" source="dVXYRCgGDvTtOGV9DusT-15" target="dVXYRCgGDvTtOGV9DusT-16" edge="1">
                    <mxGeometry relative="1" as="geometry"/>
                </mxCell>
                <mxCell id="dVXYRCgGDvTtOGV9DusT-15" value="40" style="ellipse;whiteSpace=wrap;html=1;aspect=fixed;fontFamily=Fira Code;fillColor=#000000;" parent="dVXYRCgGDvTtOGV9DusT-1" vertex="1">
                    <mxGeometry x="-200" y="280" width="40" height="40" as="geometry"/>
                </mxCell>
                <mxCell id="dVXYRCgGDvTtOGV9DusT-16" value="30" style="ellipse;whiteSpace=wrap;html=1;aspect=fixed;fontFamily=Fira Code;fillColor=#CC0000;" parent="dVXYRCgGDvTtOGV9DusT-1" vertex="1">
                    <mxGeometry x="-320" y="360" width="40" height="40" as="geometry"/>
                </mxCell>
            </root>
        </mxGraphModel>
    </diagram>
    <diagram name="Copy of Copy of Copy of Copy of Copy of Copy of Copy of Copy of Copy of Copy of Copy of Copy of Copy of Copy of Copy of Copy of Copy of Page-1" id="Nfl0GHLj-X4X_kARWife">
        <mxGraphModel dx="2202" dy="860" grid="1" gridSize="10" guides="1" tooltips="1" connect="1" arrows="1" fold="1" page="1" pageScale="1" pageWidth="800" pageHeight="800" math="0" shadow="0">
            <root>
                <mxCell id="MkXsGshwQYMdCtRBTKr_-0"/>
                <mxCell id="MkXsGshwQYMdCtRBTKr_-1" parent="MkXsGshwQYMdCtRBTKr_-0"/>
                <mxCell id="MkXsGshwQYMdCtRBTKr_-2" style="edgeStyle=none;rounded=0;orthogonalLoop=1;jettySize=auto;html=1;exitX=1;exitY=1;exitDx=0;exitDy=0;entryX=0;entryY=0;entryDx=0;entryDy=0;endArrow=none;endFill=0;" parent="MkXsGshwQYMdCtRBTKr_-1" source="MkXsGshwQYMdCtRBTKr_-3" target="MkXsGshwQYMdCtRBTKr_-4" edge="1">
                    <mxGeometry relative="1" as="geometry"/>
                </mxCell>
                <mxCell id="MkXsGshwQYMdCtRBTKr_-3" value="70" style="ellipse;whiteSpace=wrap;html=1;aspect=fixed;fontFamily=Fira Code;fillColor=#CC0000;" parent="MkXsGshwQYMdCtRBTKr_-1" vertex="1">
                    <mxGeometry x="400" y="40" width="40" height="40" as="geometry"/>
                </mxCell>
                <mxCell id="qZcf95spF_mDj5SgEoM5-1" style="edgeStyle=none;rounded=0;orthogonalLoop=1;jettySize=auto;html=1;exitX=0;exitY=1;exitDx=0;exitDy=0;entryX=1;entryY=0;entryDx=0;entryDy=0;endArrow=none;endFill=0;" parent="MkXsGshwQYMdCtRBTKr_-1" source="MkXsGshwQYMdCtRBTKr_-4" target="qZcf95spF_mDj5SgEoM5-0" edge="1">
                    <mxGeometry relative="1" as="geometry"/>
                </mxCell>
                <mxCell id="qZcf95spF_mDj5SgEoM5-3" style="edgeStyle=none;rounded=0;orthogonalLoop=1;jettySize=auto;html=1;exitX=1;exitY=1;exitDx=0;exitDy=0;entryX=0;entryY=0;entryDx=0;entryDy=0;endArrow=none;endFill=0;" parent="MkXsGshwQYMdCtRBTKr_-1" source="MkXsGshwQYMdCtRBTKr_-4" target="qZcf95spF_mDj5SgEoM5-2" edge="1">
                    <mxGeometry relative="1" as="geometry"/>
                </mxCell>
                <mxCell id="MkXsGshwQYMdCtRBTKr_-4" value="90" style="ellipse;whiteSpace=wrap;html=1;aspect=fixed;fontFamily=Fira Code;fillColor=#000000;" parent="MkXsGshwQYMdCtRBTKr_-1" vertex="1">
                    <mxGeometry x="640" y="120" width="40" height="40" as="geometry"/>
                </mxCell>
                <mxCell id="MkXsGshwQYMdCtRBTKr_-5" style="edgeStyle=none;rounded=0;orthogonalLoop=1;jettySize=auto;html=1;exitX=1;exitY=0;exitDx=0;exitDy=0;entryX=0;entryY=1;entryDx=0;entryDy=0;endArrow=none;endFill=0;" parent="MkXsGshwQYMdCtRBTKr_-1" source="MkXsGshwQYMdCtRBTKr_-8" target="MkXsGshwQYMdCtRBTKr_-3" edge="1">
                    <mxGeometry relative="1" as="geometry"/>
                </mxCell>
                <mxCell id="MkXsGshwQYMdCtRBTKr_-6" style="edgeStyle=none;rounded=0;orthogonalLoop=1;jettySize=auto;html=1;exitX=0;exitY=1;exitDx=0;exitDy=0;entryX=1;entryY=0;entryDx=0;entryDy=0;endArrow=none;endFill=0;" parent="MkXsGshwQYMdCtRBTKr_-1" source="MkXsGshwQYMdCtRBTKr_-8" target="MkXsGshwQYMdCtRBTKr_-11" edge="1">
                    <mxGeometry relative="1" as="geometry"/>
                </mxCell>
                <mxCell id="MkXsGshwQYMdCtRBTKr_-7" style="edgeStyle=none;rounded=0;orthogonalLoop=1;jettySize=auto;html=1;exitX=1;exitY=1;exitDx=0;exitDy=0;entryX=0;entryY=0;entryDx=0;entryDy=0;endArrow=none;endFill=0;" parent="MkXsGshwQYMdCtRBTKr_-1" source="MkXsGshwQYMdCtRBTKr_-8" target="MkXsGshwQYMdCtRBTKr_-9" edge="1">
                    <mxGeometry relative="1" as="geometry"/>
                </mxCell>
                <mxCell id="MkXsGshwQYMdCtRBTKr_-8" value="50" style="ellipse;whiteSpace=wrap;html=1;aspect=fixed;fontFamily=Fira Code;fillColor=#CC0000;" parent="MkXsGshwQYMdCtRBTKr_-1" vertex="1">
                    <mxGeometry x="160" y="120" width="40" height="40" as="geometry"/>
                </mxCell>
                <mxCell id="MkXsGshwQYMdCtRBTKr_-9" value="60" style="ellipse;whiteSpace=wrap;html=1;aspect=fixed;fontFamily=Fira Code;fillColor=#000000;" parent="MkXsGshwQYMdCtRBTKr_-1" vertex="1">
                    <mxGeometry x="360" y="200" width="40" height="40" as="geometry"/>
                </mxCell>
                <mxCell id="MkXsGshwQYMdCtRBTKr_-11" value="40" style="ellipse;whiteSpace=wrap;html=1;aspect=fixed;fontFamily=Fira Code;fillColor=#000000;" parent="MkXsGshwQYMdCtRBTKr_-1" vertex="1">
                    <mxGeometry x="-40" y="200" width="40" height="40" as="geometry"/>
                </mxCell>
                <mxCell id="MkXsGshwQYMdCtRBTKr_-13" style="edgeStyle=none;rounded=0;orthogonalLoop=1;jettySize=auto;html=1;exitX=1;exitY=0;exitDx=0;exitDy=0;entryX=0;entryY=1;entryDx=0;entryDy=0;endArrow=none;endFill=0;" parent="MkXsGshwQYMdCtRBTKr_-1" source="MkXsGshwQYMdCtRBTKr_-15" target="MkXsGshwQYMdCtRBTKr_-11" edge="1">
                    <mxGeometry relative="1" as="geometry"/>
                </mxCell>
                <mxCell id="MkXsGshwQYMdCtRBTKr_-15" value="30" style="ellipse;whiteSpace=wrap;html=1;aspect=fixed;fontFamily=Fira Code;fillColor=#CC0000;" parent="MkXsGshwQYMdCtRBTKr_-1" vertex="1">
                    <mxGeometry x="-200" y="280" width="40" height="40" as="geometry"/>
                </mxCell>
                <mxCell id="qZcf95spF_mDj5SgEoM5-0" value="80" style="ellipse;whiteSpace=wrap;html=1;aspect=fixed;fontFamily=Fira Code;fillColor=#000000;" parent="MkXsGshwQYMdCtRBTKr_-1" vertex="1">
                    <mxGeometry x="440" y="200" width="40" height="40" as="geometry"/>
                </mxCell>
                <mxCell id="qZcf95spF_mDj5SgEoM5-2" value="100" style="ellipse;whiteSpace=wrap;html=1;aspect=fixed;fontFamily=Fira Code;fillColor=#000000;" parent="MkXsGshwQYMdCtRBTKr_-1" vertex="1">
                    <mxGeometry x="840" y="200" width="40" height="40" as="geometry"/>
                </mxCell>
            </root>
        </mxGraphModel>
    </diagram>
    <diagram name="Copy of Copy of Copy of Copy of Copy of Copy of Copy of Copy of Copy of Copy of Copy of Copy of Copy of Copy of Copy of Copy of Copy of Copy of Page-1" id="JtDp6gR3tJxPewmSnpqW">
        <mxGraphModel dx="2202" dy="860" grid="1" gridSize="10" guides="1" tooltips="1" connect="1" arrows="1" fold="1" page="1" pageScale="1" pageWidth="800" pageHeight="800" math="0" shadow="0">
            <root>
                <mxCell id="7oJXKvn7hrqCFKrs-Nus-0"/>
                <mxCell id="7oJXKvn7hrqCFKrs-Nus-1" parent="7oJXKvn7hrqCFKrs-Nus-0"/>
                <mxCell id="7oJXKvn7hrqCFKrs-Nus-2" style="edgeStyle=none;rounded=0;orthogonalLoop=1;jettySize=auto;html=1;exitX=1;exitY=1;exitDx=0;exitDy=0;entryX=0;entryY=0;entryDx=0;entryDy=0;endArrow=none;endFill=0;" parent="7oJXKvn7hrqCFKrs-Nus-1" source="7oJXKvn7hrqCFKrs-Nus-3" target="7oJXKvn7hrqCFKrs-Nus-6" edge="1">
                    <mxGeometry relative="1" as="geometry"/>
                </mxCell>
                <mxCell id="7oJXKvn7hrqCFKrs-Nus-3" value="70" style="ellipse;whiteSpace=wrap;html=1;aspect=fixed;fontFamily=Fira Code;fillColor=#000000;" parent="7oJXKvn7hrqCFKrs-Nus-1" vertex="1">
                    <mxGeometry x="400" y="40" width="40" height="40" as="geometry"/>
                </mxCell>
                <mxCell id="7oJXKvn7hrqCFKrs-Nus-4" style="edgeStyle=none;rounded=0;orthogonalLoop=1;jettySize=auto;html=1;exitX=0;exitY=1;exitDx=0;exitDy=0;entryX=1;entryY=0;entryDx=0;entryDy=0;endArrow=none;endFill=0;" parent="7oJXKvn7hrqCFKrs-Nus-1" source="7oJXKvn7hrqCFKrs-Nus-6" target="7oJXKvn7hrqCFKrs-Nus-15" edge="1">
                    <mxGeometry relative="1" as="geometry"/>
                </mxCell>
                <mxCell id="7oJXKvn7hrqCFKrs-Nus-5" style="edgeStyle=none;rounded=0;orthogonalLoop=1;jettySize=auto;html=1;exitX=1;exitY=1;exitDx=0;exitDy=0;entryX=0;entryY=0;entryDx=0;entryDy=0;endArrow=none;endFill=0;" parent="7oJXKvn7hrqCFKrs-Nus-1" source="7oJXKvn7hrqCFKrs-Nus-6" target="7oJXKvn7hrqCFKrs-Nus-16" edge="1">
                    <mxGeometry relative="1" as="geometry"/>
                </mxCell>
                <mxCell id="7oJXKvn7hrqCFKrs-Nus-6" value="90" style="ellipse;whiteSpace=wrap;html=1;aspect=fixed;fontFamily=Fira Code;fillColor=#CC0000;" parent="7oJXKvn7hrqCFKrs-Nus-1" vertex="1">
                    <mxGeometry x="640" y="120" width="40" height="40" as="geometry"/>
                </mxCell>
                <mxCell id="7oJXKvn7hrqCFKrs-Nus-7" style="edgeStyle=none;rounded=0;orthogonalLoop=1;jettySize=auto;html=1;exitX=1;exitY=0;exitDx=0;exitDy=0;entryX=0;entryY=1;entryDx=0;entryDy=0;endArrow=none;endFill=0;" parent="7oJXKvn7hrqCFKrs-Nus-1" source="7oJXKvn7hrqCFKrs-Nus-10" target="7oJXKvn7hrqCFKrs-Nus-3" edge="1">
                    <mxGeometry relative="1" as="geometry"/>
                </mxCell>
                <mxCell id="7oJXKvn7hrqCFKrs-Nus-8" style="edgeStyle=none;rounded=0;orthogonalLoop=1;jettySize=auto;html=1;exitX=0;exitY=1;exitDx=0;exitDy=0;entryX=1;entryY=0;entryDx=0;entryDy=0;endArrow=none;endFill=0;" parent="7oJXKvn7hrqCFKrs-Nus-1" source="7oJXKvn7hrqCFKrs-Nus-10" target="7oJXKvn7hrqCFKrs-Nus-12" edge="1">
                    <mxGeometry relative="1" as="geometry"/>
                </mxCell>
                <mxCell id="7oJXKvn7hrqCFKrs-Nus-9" style="edgeStyle=none;rounded=0;orthogonalLoop=1;jettySize=auto;html=1;exitX=1;exitY=1;exitDx=0;exitDy=0;entryX=0;entryY=0;entryDx=0;entryDy=0;endArrow=none;endFill=0;" parent="7oJXKvn7hrqCFKrs-Nus-1" source="7oJXKvn7hrqCFKrs-Nus-10" target="7oJXKvn7hrqCFKrs-Nus-11" edge="1">
                    <mxGeometry relative="1" as="geometry"/>
                </mxCell>
                <mxCell id="7oJXKvn7hrqCFKrs-Nus-10" value="50" style="ellipse;whiteSpace=wrap;html=1;aspect=fixed;fontFamily=Fira Code;fillColor=#CC0000;" parent="7oJXKvn7hrqCFKrs-Nus-1" vertex="1">
                    <mxGeometry x="160" y="120" width="40" height="40" as="geometry"/>
                </mxCell>
                <mxCell id="7oJXKvn7hrqCFKrs-Nus-11" value="60" style="ellipse;whiteSpace=wrap;html=1;aspect=fixed;fontFamily=Fira Code;fillColor=#000000;" parent="7oJXKvn7hrqCFKrs-Nus-1" vertex="1">
                    <mxGeometry x="360" y="200" width="40" height="40" as="geometry"/>
                </mxCell>
                <mxCell id="7oJXKvn7hrqCFKrs-Nus-12" value="40" style="ellipse;whiteSpace=wrap;html=1;aspect=fixed;fontFamily=Fira Code;fillColor=#000000;" parent="7oJXKvn7hrqCFKrs-Nus-1" vertex="1">
                    <mxGeometry x="-40" y="200" width="40" height="40" as="geometry"/>
                </mxCell>
                <mxCell id="7oJXKvn7hrqCFKrs-Nus-13" style="edgeStyle=none;rounded=0;orthogonalLoop=1;jettySize=auto;html=1;exitX=1;exitY=0;exitDx=0;exitDy=0;entryX=0;entryY=1;entryDx=0;entryDy=0;endArrow=none;endFill=0;" parent="7oJXKvn7hrqCFKrs-Nus-1" source="7oJXKvn7hrqCFKrs-Nus-14" target="7oJXKvn7hrqCFKrs-Nus-12" edge="1">
                    <mxGeometry relative="1" as="geometry"/>
                </mxCell>
                <mxCell id="7oJXKvn7hrqCFKrs-Nus-14" value="30" style="ellipse;whiteSpace=wrap;html=1;aspect=fixed;fontFamily=Fira Code;fillColor=#CC0000;" parent="7oJXKvn7hrqCFKrs-Nus-1" vertex="1">
                    <mxGeometry x="-200" y="280" width="40" height="40" as="geometry"/>
                </mxCell>
                <mxCell id="7oJXKvn7hrqCFKrs-Nus-15" value="80" style="ellipse;whiteSpace=wrap;html=1;aspect=fixed;fontFamily=Fira Code;fillColor=#000000;" parent="7oJXKvn7hrqCFKrs-Nus-1" vertex="1">
                    <mxGeometry x="440" y="200" width="40" height="40" as="geometry"/>
                </mxCell>
                <mxCell id="7oJXKvn7hrqCFKrs-Nus-16" value="100" style="ellipse;whiteSpace=wrap;html=1;aspect=fixed;fontFamily=Fira Code;fillColor=#000000;" parent="7oJXKvn7hrqCFKrs-Nus-1" vertex="1">
                    <mxGeometry x="840" y="200" width="40" height="40" as="geometry"/>
                </mxCell>
            </root>
        </mxGraphModel>
    </diagram>
    <diagram name="Copy of Copy of Copy of Copy of Copy of Copy of Copy of Copy of Copy of Copy of Copy of Copy of Copy of Copy of Copy of Copy of Copy of Copy of Copy of Page-1" id="MtX-lD8AAaytQG0PiSzp">
        <mxGraphModel dx="2202" dy="860" grid="1" gridSize="10" guides="1" tooltips="1" connect="1" arrows="1" fold="1" page="1" pageScale="1" pageWidth="800" pageHeight="800" math="0" shadow="0">
            <root>
                <mxCell id="wDW_hpWWRJZI1UU6INvx-0"/>
                <mxCell id="wDW_hpWWRJZI1UU6INvx-1" parent="wDW_hpWWRJZI1UU6INvx-0"/>
                <mxCell id="wDW_hpWWRJZI1UU6INvx-2" style="edgeStyle=none;rounded=0;orthogonalLoop=1;jettySize=auto;html=1;exitX=1;exitY=1;exitDx=0;exitDy=0;entryX=0;entryY=0;entryDx=0;entryDy=0;endArrow=none;endFill=0;" parent="wDW_hpWWRJZI1UU6INvx-1" source="wDW_hpWWRJZI1UU6INvx-3" target="wDW_hpWWRJZI1UU6INvx-6" edge="1">
                    <mxGeometry relative="1" as="geometry"/>
                </mxCell>
                <mxCell id="wDW_hpWWRJZI1UU6INvx-3" value="70" style="ellipse;whiteSpace=wrap;html=1;aspect=fixed;fontFamily=Fira Code;fillColor=#000000;" parent="wDW_hpWWRJZI1UU6INvx-1" vertex="1">
                    <mxGeometry x="400" y="40" width="40" height="40" as="geometry"/>
                </mxCell>
                <mxCell id="wDW_hpWWRJZI1UU6INvx-4" style="edgeStyle=none;rounded=0;orthogonalLoop=1;jettySize=auto;html=1;exitX=0;exitY=1;exitDx=0;exitDy=0;entryX=1;entryY=0;entryDx=0;entryDy=0;endArrow=none;endFill=0;" parent="wDW_hpWWRJZI1UU6INvx-1" source="wDW_hpWWRJZI1UU6INvx-6" target="wDW_hpWWRJZI1UU6INvx-15" edge="1">
                    <mxGeometry relative="1" as="geometry"/>
                </mxCell>
                <mxCell id="wDW_hpWWRJZI1UU6INvx-5" style="edgeStyle=none;rounded=0;orthogonalLoop=1;jettySize=auto;html=1;exitX=1;exitY=1;exitDx=0;exitDy=0;entryX=0;entryY=0;entryDx=0;entryDy=0;endArrow=none;endFill=0;" parent="wDW_hpWWRJZI1UU6INvx-1" source="wDW_hpWWRJZI1UU6INvx-6" target="wDW_hpWWRJZI1UU6INvx-16" edge="1">
                    <mxGeometry relative="1" as="geometry"/>
                </mxCell>
                <mxCell id="wDW_hpWWRJZI1UU6INvx-6" value="90" style="ellipse;whiteSpace=wrap;html=1;aspect=fixed;fontFamily=Fira Code;fillColor=#CC0000;" parent="wDW_hpWWRJZI1UU6INvx-1" vertex="1">
                    <mxGeometry x="640" y="120" width="40" height="40" as="geometry"/>
                </mxCell>
                <mxCell id="wDW_hpWWRJZI1UU6INvx-7" style="edgeStyle=none;rounded=0;orthogonalLoop=1;jettySize=auto;html=1;exitX=1;exitY=0;exitDx=0;exitDy=0;entryX=0;entryY=1;entryDx=0;entryDy=0;endArrow=none;endFill=0;" parent="wDW_hpWWRJZI1UU6INvx-1" source="wDW_hpWWRJZI1UU6INvx-10" target="wDW_hpWWRJZI1UU6INvx-3" edge="1">
                    <mxGeometry relative="1" as="geometry"/>
                </mxCell>
                <mxCell id="wDW_hpWWRJZI1UU6INvx-8" style="edgeStyle=none;rounded=0;orthogonalLoop=1;jettySize=auto;html=1;exitX=0;exitY=1;exitDx=0;exitDy=0;entryX=1;entryY=0;entryDx=0;entryDy=0;endArrow=none;endFill=0;" parent="wDW_hpWWRJZI1UU6INvx-1" source="wDW_hpWWRJZI1UU6INvx-10" target="wDW_hpWWRJZI1UU6INvx-12" edge="1">
                    <mxGeometry relative="1" as="geometry"/>
                </mxCell>
                <mxCell id="wDW_hpWWRJZI1UU6INvx-9" style="edgeStyle=none;rounded=0;orthogonalLoop=1;jettySize=auto;html=1;exitX=1;exitY=1;exitDx=0;exitDy=0;entryX=0;entryY=0;entryDx=0;entryDy=0;endArrow=none;endFill=0;" parent="wDW_hpWWRJZI1UU6INvx-1" source="wDW_hpWWRJZI1UU6INvx-10" target="wDW_hpWWRJZI1UU6INvx-11" edge="1">
                    <mxGeometry relative="1" as="geometry"/>
                </mxCell>
                <mxCell id="wDW_hpWWRJZI1UU6INvx-10" value="50" style="ellipse;whiteSpace=wrap;html=1;aspect=fixed;fontFamily=Fira Code;fillColor=#CC0000;" parent="wDW_hpWWRJZI1UU6INvx-1" vertex="1">
                    <mxGeometry x="160" y="120" width="40" height="40" as="geometry"/>
                </mxCell>
                <mxCell id="wDW_hpWWRJZI1UU6INvx-11" value="60" style="ellipse;whiteSpace=wrap;html=1;aspect=fixed;fontFamily=Fira Code;fillColor=#000000;" parent="wDW_hpWWRJZI1UU6INvx-1" vertex="1">
                    <mxGeometry x="360" y="200" width="40" height="40" as="geometry"/>
                </mxCell>
                <mxCell id="wDW_hpWWRJZI1UU6INvx-12" value="40" style="ellipse;whiteSpace=wrap;html=1;aspect=fixed;fontFamily=Fira Code;fillColor=#000000;" parent="wDW_hpWWRJZI1UU6INvx-1" vertex="1">
                    <mxGeometry x="-40" y="200" width="40" height="40" as="geometry"/>
                </mxCell>
                <mxCell id="wDW_hpWWRJZI1UU6INvx-13" style="edgeStyle=none;rounded=0;orthogonalLoop=1;jettySize=auto;html=1;exitX=1;exitY=0;exitDx=0;exitDy=0;entryX=0;entryY=1;entryDx=0;entryDy=0;endArrow=none;endFill=0;" parent="wDW_hpWWRJZI1UU6INvx-1" source="wDW_hpWWRJZI1UU6INvx-14" target="wDW_hpWWRJZI1UU6INvx-12" edge="1">
                    <mxGeometry relative="1" as="geometry"/>
                </mxCell>
                <mxCell id="wDW_hpWWRJZI1UU6INvx-14" value="30" style="ellipse;whiteSpace=wrap;html=1;aspect=fixed;fontFamily=Fira Code;fillColor=#CC0000;" parent="wDW_hpWWRJZI1UU6INvx-1" vertex="1">
                    <mxGeometry x="-200" y="280" width="40" height="40" as="geometry"/>
                </mxCell>
                <mxCell id="wDW_hpWWRJZI1UU6INvx-15" value="80" style="ellipse;whiteSpace=wrap;html=1;aspect=fixed;fontFamily=Fira Code;fillColor=#000000;" parent="wDW_hpWWRJZI1UU6INvx-1" vertex="1">
                    <mxGeometry x="440" y="200" width="40" height="40" as="geometry"/>
                </mxCell>
                <mxCell id="wDW_hpWWRJZI1UU6INvx-16" value="100" style="ellipse;whiteSpace=wrap;html=1;aspect=fixed;fontFamily=Fira Code;fillColor=#000000;" parent="wDW_hpWWRJZI1UU6INvx-1" vertex="1">
                    <mxGeometry x="840" y="200" width="40" height="40" as="geometry"/>
                </mxCell>
                <mxCell id="xJ41GlLKRshddKnv_y3G-1" style="edgeStyle=none;rounded=0;orthogonalLoop=1;jettySize=auto;html=1;exitX=1;exitY=0;exitDx=0;exitDy=0;entryX=0;entryY=1;entryDx=0;entryDy=0;endArrow=none;endFill=0;" parent="wDW_hpWWRJZI1UU6INvx-1" source="xJ41GlLKRshddKnv_y3G-0" target="wDW_hpWWRJZI1UU6INvx-14" edge="1">
                    <mxGeometry relative="1" as="geometry"/>
                </mxCell>
                <mxCell id="xJ41GlLKRshddKnv_y3G-0" value="20" style="ellipse;whiteSpace=wrap;html=1;aspect=fixed;fontFamily=Fira Code;fillColor=#CC0000;" parent="wDW_hpWWRJZI1UU6INvx-1" vertex="1">
                    <mxGeometry x="-320" y="360" width="40" height="40" as="geometry"/>
                </mxCell>
            </root>
        </mxGraphModel>
    </diagram>
    <diagram name="Copy of Copy of Copy of Copy of Copy of Copy of Copy of Copy of Copy of Copy of Copy of Copy of Copy of Copy of Copy of Copy of Copy of Copy of Copy of Copy of Page-1" id="5aL-B71ro294GTudMIV_">
        <mxGraphModel dx="2202" dy="860" grid="1" gridSize="10" guides="1" tooltips="1" connect="1" arrows="1" fold="1" page="1" pageScale="1" pageWidth="800" pageHeight="800" math="0" shadow="0">
            <root>
                <mxCell id="2e-CJcShh2hvgzySXgWk-0"/>
                <mxCell id="2e-CJcShh2hvgzySXgWk-1" parent="2e-CJcShh2hvgzySXgWk-0"/>
                <mxCell id="2e-CJcShh2hvgzySXgWk-2" style="edgeStyle=none;rounded=0;orthogonalLoop=1;jettySize=auto;html=1;exitX=1;exitY=1;exitDx=0;exitDy=0;entryX=0;entryY=0;entryDx=0;entryDy=0;endArrow=none;endFill=0;" parent="2e-CJcShh2hvgzySXgWk-1" source="2e-CJcShh2hvgzySXgWk-3" target="2e-CJcShh2hvgzySXgWk-6" edge="1">
                    <mxGeometry relative="1" as="geometry"/>
                </mxCell>
                <mxCell id="2e-CJcShh2hvgzySXgWk-3" value="70" style="ellipse;whiteSpace=wrap;html=1;aspect=fixed;fontFamily=Fira Code;fillColor=#000000;" parent="2e-CJcShh2hvgzySXgWk-1" vertex="1">
                    <mxGeometry x="400" y="40" width="40" height="40" as="geometry"/>
                </mxCell>
                <mxCell id="2e-CJcShh2hvgzySXgWk-4" style="edgeStyle=none;rounded=0;orthogonalLoop=1;jettySize=auto;html=1;exitX=0;exitY=1;exitDx=0;exitDy=0;entryX=1;entryY=0;entryDx=0;entryDy=0;endArrow=none;endFill=0;" parent="2e-CJcShh2hvgzySXgWk-1" source="2e-CJcShh2hvgzySXgWk-6" target="2e-CJcShh2hvgzySXgWk-15" edge="1">
                    <mxGeometry relative="1" as="geometry"/>
                </mxCell>
                <mxCell id="2e-CJcShh2hvgzySXgWk-5" style="edgeStyle=none;rounded=0;orthogonalLoop=1;jettySize=auto;html=1;exitX=1;exitY=1;exitDx=0;exitDy=0;entryX=0;entryY=0;entryDx=0;entryDy=0;endArrow=none;endFill=0;" parent="2e-CJcShh2hvgzySXgWk-1" source="2e-CJcShh2hvgzySXgWk-6" target="2e-CJcShh2hvgzySXgWk-16" edge="1">
                    <mxGeometry relative="1" as="geometry"/>
                </mxCell>
                <mxCell id="2e-CJcShh2hvgzySXgWk-6" value="90" style="ellipse;whiteSpace=wrap;html=1;aspect=fixed;fontFamily=Fira Code;fillColor=#CC0000;" parent="2e-CJcShh2hvgzySXgWk-1" vertex="1">
                    <mxGeometry x="640" y="120" width="40" height="40" as="geometry"/>
                </mxCell>
                <mxCell id="2e-CJcShh2hvgzySXgWk-7" style="edgeStyle=none;rounded=0;orthogonalLoop=1;jettySize=auto;html=1;exitX=1;exitY=0;exitDx=0;exitDy=0;entryX=0;entryY=1;entryDx=0;entryDy=0;endArrow=none;endFill=0;" parent="2e-CJcShh2hvgzySXgWk-1" source="2e-CJcShh2hvgzySXgWk-10" target="2e-CJcShh2hvgzySXgWk-3" edge="1">
                    <mxGeometry relative="1" as="geometry"/>
                </mxCell>
                <mxCell id="2e-CJcShh2hvgzySXgWk-8" style="edgeStyle=none;rounded=0;orthogonalLoop=1;jettySize=auto;html=1;exitX=0;exitY=1;exitDx=0;exitDy=0;entryX=1;entryY=0;entryDx=0;entryDy=0;endArrow=none;endFill=0;" parent="2e-CJcShh2hvgzySXgWk-1" source="2e-CJcShh2hvgzySXgWk-10" target="2e-CJcShh2hvgzySXgWk-12" edge="1">
                    <mxGeometry relative="1" as="geometry"/>
                </mxCell>
                <mxCell id="2e-CJcShh2hvgzySXgWk-9" style="edgeStyle=none;rounded=0;orthogonalLoop=1;jettySize=auto;html=1;exitX=1;exitY=1;exitDx=0;exitDy=0;entryX=0;entryY=0;entryDx=0;entryDy=0;endArrow=none;endFill=0;" parent="2e-CJcShh2hvgzySXgWk-1" source="2e-CJcShh2hvgzySXgWk-10" target="2e-CJcShh2hvgzySXgWk-11" edge="1">
                    <mxGeometry relative="1" as="geometry"/>
                </mxCell>
                <mxCell id="2e-CJcShh2hvgzySXgWk-10" value="50" style="ellipse;whiteSpace=wrap;html=1;aspect=fixed;fontFamily=Fira Code;fillColor=#CC0000;" parent="2e-CJcShh2hvgzySXgWk-1" vertex="1">
                    <mxGeometry x="160" y="120" width="40" height="40" as="geometry"/>
                </mxCell>
                <mxCell id="2e-CJcShh2hvgzySXgWk-11" value="60" style="ellipse;whiteSpace=wrap;html=1;aspect=fixed;fontFamily=Fira Code;fillColor=#000000;" parent="2e-CJcShh2hvgzySXgWk-1" vertex="1">
                    <mxGeometry x="360" y="200" width="40" height="40" as="geometry"/>
                </mxCell>
                <mxCell id="-wlAiIxHDyPpWl6FrGkc-1" style="edgeStyle=none;rounded=0;orthogonalLoop=1;jettySize=auto;html=1;exitX=1;exitY=1;exitDx=0;exitDy=0;entryX=0;entryY=0;entryDx=0;entryDy=0;endArrow=none;endFill=0;" parent="2e-CJcShh2hvgzySXgWk-1" source="2e-CJcShh2hvgzySXgWk-12" target="2e-CJcShh2hvgzySXgWk-14" edge="1">
                    <mxGeometry relative="1" as="geometry"/>
                </mxCell>
                <mxCell id="2e-CJcShh2hvgzySXgWk-12" value="30" style="ellipse;whiteSpace=wrap;html=1;aspect=fixed;fontFamily=Fira Code;fillColor=#CC0000;" parent="2e-CJcShh2hvgzySXgWk-1" vertex="1">
                    <mxGeometry x="-40" y="200" width="40" height="40" as="geometry"/>
                </mxCell>
                <mxCell id="2e-CJcShh2hvgzySXgWk-14" value="40" style="ellipse;whiteSpace=wrap;html=1;aspect=fixed;fontFamily=Fira Code;fillColor=#000000;" parent="2e-CJcShh2hvgzySXgWk-1" vertex="1">
                    <mxGeometry x="120" y="280" width="40" height="40" as="geometry"/>
                </mxCell>
                <mxCell id="2e-CJcShh2hvgzySXgWk-15" value="80" style="ellipse;whiteSpace=wrap;html=1;aspect=fixed;fontFamily=Fira Code;fillColor=#000000;" parent="2e-CJcShh2hvgzySXgWk-1" vertex="1">
                    <mxGeometry x="440" y="200" width="40" height="40" as="geometry"/>
                </mxCell>
                <mxCell id="2e-CJcShh2hvgzySXgWk-16" value="100" style="ellipse;whiteSpace=wrap;html=1;aspect=fixed;fontFamily=Fira Code;fillColor=#000000;" parent="2e-CJcShh2hvgzySXgWk-1" vertex="1">
                    <mxGeometry x="840" y="200" width="40" height="40" as="geometry"/>
                </mxCell>
                <mxCell id="-wlAiIxHDyPpWl6FrGkc-0" style="edgeStyle=none;rounded=0;orthogonalLoop=1;jettySize=auto;html=1;exitX=1;exitY=0;exitDx=0;exitDy=0;entryX=0;entryY=1;entryDx=0;entryDy=0;endArrow=none;endFill=0;" parent="2e-CJcShh2hvgzySXgWk-1" source="2e-CJcShh2hvgzySXgWk-18" target="2e-CJcShh2hvgzySXgWk-12" edge="1">
                    <mxGeometry relative="1" as="geometry"/>
                </mxCell>
                <mxCell id="2e-CJcShh2hvgzySXgWk-18" value="20" style="ellipse;whiteSpace=wrap;html=1;aspect=fixed;fontFamily=Fira Code;fillColor=#CC0000;" parent="2e-CJcShh2hvgzySXgWk-1" vertex="1">
                    <mxGeometry x="-200" y="280" width="40" height="40" as="geometry"/>
                </mxCell>
            </root>
        </mxGraphModel>
    </diagram>
    <diagram name="Copy of Copy of Copy of Copy of Copy of Copy of Copy of Copy of Copy of Copy of Copy of Copy of Copy of Copy of Copy of Copy of Copy of Copy of Copy of Copy of Copy of Page-1" id="69a93hHpa_98nBcbompV">
        <mxGraphModel dx="2202" dy="860" grid="1" gridSize="10" guides="1" tooltips="1" connect="1" arrows="1" fold="1" page="1" pageScale="1" pageWidth="800" pageHeight="800" math="0" shadow="0">
            <root>
                <mxCell id="WyAMP-uhf--6ULTjOkGM-0"/>
                <mxCell id="WyAMP-uhf--6ULTjOkGM-1" parent="WyAMP-uhf--6ULTjOkGM-0"/>
                <mxCell id="WyAMP-uhf--6ULTjOkGM-2" style="edgeStyle=none;rounded=0;orthogonalLoop=1;jettySize=auto;html=1;exitX=1;exitY=1;exitDx=0;exitDy=0;entryX=0;entryY=0;entryDx=0;entryDy=0;endArrow=none;endFill=0;" parent="WyAMP-uhf--6ULTjOkGM-1" source="WyAMP-uhf--6ULTjOkGM-3" target="WyAMP-uhf--6ULTjOkGM-6" edge="1">
                    <mxGeometry relative="1" as="geometry"/>
                </mxCell>
                <mxCell id="WyAMP-uhf--6ULTjOkGM-3" value="70" style="ellipse;whiteSpace=wrap;html=1;aspect=fixed;fontFamily=Fira Code;fillColor=#000000;" parent="WyAMP-uhf--6ULTjOkGM-1" vertex="1">
                    <mxGeometry x="400" y="40" width="40" height="40" as="geometry"/>
                </mxCell>
                <mxCell id="WyAMP-uhf--6ULTjOkGM-4" style="edgeStyle=none;rounded=0;orthogonalLoop=1;jettySize=auto;html=1;exitX=0;exitY=1;exitDx=0;exitDy=0;entryX=1;entryY=0;entryDx=0;entryDy=0;endArrow=none;endFill=0;" parent="WyAMP-uhf--6ULTjOkGM-1" source="WyAMP-uhf--6ULTjOkGM-6" target="WyAMP-uhf--6ULTjOkGM-15" edge="1">
                    <mxGeometry relative="1" as="geometry"/>
                </mxCell>
                <mxCell id="WyAMP-uhf--6ULTjOkGM-5" style="edgeStyle=none;rounded=0;orthogonalLoop=1;jettySize=auto;html=1;exitX=1;exitY=1;exitDx=0;exitDy=0;entryX=0;entryY=0;entryDx=0;entryDy=0;endArrow=none;endFill=0;" parent="WyAMP-uhf--6ULTjOkGM-1" source="WyAMP-uhf--6ULTjOkGM-6" target="WyAMP-uhf--6ULTjOkGM-16" edge="1">
                    <mxGeometry relative="1" as="geometry"/>
                </mxCell>
                <mxCell id="WyAMP-uhf--6ULTjOkGM-6" value="90" style="ellipse;whiteSpace=wrap;html=1;aspect=fixed;fontFamily=Fira Code;fillColor=#CC0000;" parent="WyAMP-uhf--6ULTjOkGM-1" vertex="1">
                    <mxGeometry x="640" y="120" width="40" height="40" as="geometry"/>
                </mxCell>
                <mxCell id="WyAMP-uhf--6ULTjOkGM-7" style="edgeStyle=none;rounded=0;orthogonalLoop=1;jettySize=auto;html=1;exitX=1;exitY=0;exitDx=0;exitDy=0;entryX=0;entryY=1;entryDx=0;entryDy=0;endArrow=none;endFill=0;" parent="WyAMP-uhf--6ULTjOkGM-1" source="WyAMP-uhf--6ULTjOkGM-10" target="WyAMP-uhf--6ULTjOkGM-3" edge="1">
                    <mxGeometry relative="1" as="geometry"/>
                </mxCell>
                <mxCell id="WyAMP-uhf--6ULTjOkGM-8" style="edgeStyle=none;rounded=0;orthogonalLoop=1;jettySize=auto;html=1;exitX=0;exitY=1;exitDx=0;exitDy=0;entryX=1;entryY=0;entryDx=0;entryDy=0;endArrow=none;endFill=0;" parent="WyAMP-uhf--6ULTjOkGM-1" source="WyAMP-uhf--6ULTjOkGM-10" target="WyAMP-uhf--6ULTjOkGM-13" edge="1">
                    <mxGeometry relative="1" as="geometry"/>
                </mxCell>
                <mxCell id="WyAMP-uhf--6ULTjOkGM-9" style="edgeStyle=none;rounded=0;orthogonalLoop=1;jettySize=auto;html=1;exitX=1;exitY=1;exitDx=0;exitDy=0;entryX=0;entryY=0;entryDx=0;entryDy=0;endArrow=none;endFill=0;" parent="WyAMP-uhf--6ULTjOkGM-1" source="WyAMP-uhf--6ULTjOkGM-10" target="WyAMP-uhf--6ULTjOkGM-11" edge="1">
                    <mxGeometry relative="1" as="geometry"/>
                </mxCell>
                <mxCell id="WyAMP-uhf--6ULTjOkGM-10" value="50" style="ellipse;whiteSpace=wrap;html=1;aspect=fixed;fontFamily=Fira Code;fillColor=#CC0000;" parent="WyAMP-uhf--6ULTjOkGM-1" vertex="1">
                    <mxGeometry x="160" y="120" width="40" height="40" as="geometry"/>
                </mxCell>
                <mxCell id="WyAMP-uhf--6ULTjOkGM-11" value="60" style="ellipse;whiteSpace=wrap;html=1;aspect=fixed;fontFamily=Fira Code;fillColor=#000000;" parent="WyAMP-uhf--6ULTjOkGM-1" vertex="1">
                    <mxGeometry x="360" y="200" width="40" height="40" as="geometry"/>
                </mxCell>
                <mxCell id="WyAMP-uhf--6ULTjOkGM-12" style="edgeStyle=none;rounded=0;orthogonalLoop=1;jettySize=auto;html=1;exitX=1;exitY=1;exitDx=0;exitDy=0;entryX=0;entryY=0;entryDx=0;entryDy=0;endArrow=none;endFill=0;" parent="WyAMP-uhf--6ULTjOkGM-1" source="WyAMP-uhf--6ULTjOkGM-13" target="WyAMP-uhf--6ULTjOkGM-14" edge="1">
                    <mxGeometry relative="1" as="geometry"/>
                </mxCell>
                <mxCell id="WyAMP-uhf--6ULTjOkGM-13" value="30" style="ellipse;whiteSpace=wrap;html=1;aspect=fixed;fontFamily=Fira Code;fillColor=#000000;" parent="WyAMP-uhf--6ULTjOkGM-1" vertex="1">
                    <mxGeometry x="-40" y="200" width="40" height="40" as="geometry"/>
                </mxCell>
                <mxCell id="WyAMP-uhf--6ULTjOkGM-14" value="40" style="ellipse;whiteSpace=wrap;html=1;aspect=fixed;fontFamily=Fira Code;fillColor=#CC0000;" parent="WyAMP-uhf--6ULTjOkGM-1" vertex="1">
                    <mxGeometry x="120" y="280" width="40" height="40" as="geometry"/>
                </mxCell>
                <mxCell id="WyAMP-uhf--6ULTjOkGM-15" value="80" style="ellipse;whiteSpace=wrap;html=1;aspect=fixed;fontFamily=Fira Code;fillColor=#000000;" parent="WyAMP-uhf--6ULTjOkGM-1" vertex="1">
                    <mxGeometry x="440" y="200" width="40" height="40" as="geometry"/>
                </mxCell>
                <mxCell id="WyAMP-uhf--6ULTjOkGM-16" value="100" style="ellipse;whiteSpace=wrap;html=1;aspect=fixed;fontFamily=Fira Code;fillColor=#000000;" parent="WyAMP-uhf--6ULTjOkGM-1" vertex="1">
                    <mxGeometry x="840" y="200" width="40" height="40" as="geometry"/>
                </mxCell>
                <mxCell id="WyAMP-uhf--6ULTjOkGM-17" style="edgeStyle=none;rounded=0;orthogonalLoop=1;jettySize=auto;html=1;exitX=1;exitY=0;exitDx=0;exitDy=0;entryX=0;entryY=1;entryDx=0;entryDy=0;endArrow=none;endFill=0;" parent="WyAMP-uhf--6ULTjOkGM-1" source="WyAMP-uhf--6ULTjOkGM-18" target="WyAMP-uhf--6ULTjOkGM-13" edge="1">
                    <mxGeometry relative="1" as="geometry"/>
                </mxCell>
                <mxCell id="WyAMP-uhf--6ULTjOkGM-18" value="20" style="ellipse;whiteSpace=wrap;html=1;aspect=fixed;fontFamily=Fira Code;fillColor=#CC0000;" parent="WyAMP-uhf--6ULTjOkGM-1" vertex="1">
                    <mxGeometry x="-200" y="280" width="40" height="40" as="geometry"/>
                </mxCell>
            </root>
        </mxGraphModel>
    </diagram>
    <diagram name="Copy of Copy of Copy of Copy of Copy of Copy of Copy of Copy of Copy of Copy of Copy of Copy of Copy of Copy of Copy of Copy of Copy of Copy of Copy of Copy of Copy of Copy of Page-1" id="gr4tqUueY65NgIJjNh2B">
        <mxGraphModel dx="2202" dy="860" grid="1" gridSize="10" guides="1" tooltips="1" connect="1" arrows="1" fold="1" page="1" pageScale="1" pageWidth="800" pageHeight="800" math="0" shadow="0">
            <root>
                <mxCell id="uj75gp__5EQckSvaiFo4-0"/>
                <mxCell id="uj75gp__5EQckSvaiFo4-1" parent="uj75gp__5EQckSvaiFo4-0"/>
                <mxCell id="uj75gp__5EQckSvaiFo4-2" style="edgeStyle=none;rounded=0;orthogonalLoop=1;jettySize=auto;html=1;exitX=1;exitY=1;exitDx=0;exitDy=0;entryX=0;entryY=0;entryDx=0;entryDy=0;endArrow=none;endFill=0;" parent="uj75gp__5EQckSvaiFo4-1" source="uj75gp__5EQckSvaiFo4-3" target="uj75gp__5EQckSvaiFo4-6" edge="1">
                    <mxGeometry relative="1" as="geometry"/>
                </mxCell>
                <mxCell id="uj75gp__5EQckSvaiFo4-3" value="70" style="ellipse;whiteSpace=wrap;html=1;aspect=fixed;fontFamily=Fira Code;fillColor=#000000;" parent="uj75gp__5EQckSvaiFo4-1" vertex="1">
                    <mxGeometry x="400" y="40" width="40" height="40" as="geometry"/>
                </mxCell>
                <mxCell id="uj75gp__5EQckSvaiFo4-4" style="edgeStyle=none;rounded=0;orthogonalLoop=1;jettySize=auto;html=1;exitX=0;exitY=1;exitDx=0;exitDy=0;entryX=1;entryY=0;entryDx=0;entryDy=0;endArrow=none;endFill=0;" parent="uj75gp__5EQckSvaiFo4-1" source="uj75gp__5EQckSvaiFo4-6" target="uj75gp__5EQckSvaiFo4-15" edge="1">
                    <mxGeometry relative="1" as="geometry"/>
                </mxCell>
                <mxCell id="uj75gp__5EQckSvaiFo4-5" style="edgeStyle=none;rounded=0;orthogonalLoop=1;jettySize=auto;html=1;exitX=1;exitY=1;exitDx=0;exitDy=0;entryX=0;entryY=0;entryDx=0;entryDy=0;endArrow=none;endFill=0;" parent="uj75gp__5EQckSvaiFo4-1" source="uj75gp__5EQckSvaiFo4-6" target="uj75gp__5EQckSvaiFo4-16" edge="1">
                    <mxGeometry relative="1" as="geometry"/>
                </mxCell>
                <mxCell id="uj75gp__5EQckSvaiFo4-6" value="90" style="ellipse;whiteSpace=wrap;html=1;aspect=fixed;fontFamily=Fira Code;fillColor=#CC0000;" parent="uj75gp__5EQckSvaiFo4-1" vertex="1">
                    <mxGeometry x="640" y="120" width="40" height="40" as="geometry"/>
                </mxCell>
                <mxCell id="uj75gp__5EQckSvaiFo4-7" style="edgeStyle=none;rounded=0;orthogonalLoop=1;jettySize=auto;html=1;exitX=1;exitY=0;exitDx=0;exitDy=0;entryX=0;entryY=1;entryDx=0;entryDy=0;endArrow=none;endFill=0;" parent="uj75gp__5EQckSvaiFo4-1" source="uj75gp__5EQckSvaiFo4-10" target="uj75gp__5EQckSvaiFo4-3" edge="1">
                    <mxGeometry relative="1" as="geometry"/>
                </mxCell>
                <mxCell id="uj75gp__5EQckSvaiFo4-8" style="edgeStyle=none;rounded=0;orthogonalLoop=1;jettySize=auto;html=1;exitX=0;exitY=1;exitDx=0;exitDy=0;entryX=1;entryY=0;entryDx=0;entryDy=0;endArrow=none;endFill=0;" parent="uj75gp__5EQckSvaiFo4-1" source="uj75gp__5EQckSvaiFo4-10" target="uj75gp__5EQckSvaiFo4-13" edge="1">
                    <mxGeometry relative="1" as="geometry"/>
                </mxCell>
                <mxCell id="uj75gp__5EQckSvaiFo4-9" style="edgeStyle=none;rounded=0;orthogonalLoop=1;jettySize=auto;html=1;exitX=1;exitY=1;exitDx=0;exitDy=0;entryX=0;entryY=0;entryDx=0;entryDy=0;endArrow=none;endFill=0;" parent="uj75gp__5EQckSvaiFo4-1" source="uj75gp__5EQckSvaiFo4-10" target="uj75gp__5EQckSvaiFo4-11" edge="1">
                    <mxGeometry relative="1" as="geometry"/>
                </mxCell>
                <mxCell id="uj75gp__5EQckSvaiFo4-10" value="50" style="ellipse;whiteSpace=wrap;html=1;aspect=fixed;fontFamily=Fira Code;fillColor=#CC0000;" parent="uj75gp__5EQckSvaiFo4-1" vertex="1">
                    <mxGeometry x="160" y="120" width="40" height="40" as="geometry"/>
                </mxCell>
                <mxCell id="uj75gp__5EQckSvaiFo4-11" value="60" style="ellipse;whiteSpace=wrap;html=1;aspect=fixed;fontFamily=Fira Code;fillColor=#000000;" parent="uj75gp__5EQckSvaiFo4-1" vertex="1">
                    <mxGeometry x="360" y="200" width="40" height="40" as="geometry"/>
                </mxCell>
                <mxCell id="uj75gp__5EQckSvaiFo4-12" style="edgeStyle=none;rounded=0;orthogonalLoop=1;jettySize=auto;html=1;exitX=1;exitY=1;exitDx=0;exitDy=0;entryX=0;entryY=0;entryDx=0;entryDy=0;endArrow=none;endFill=0;" parent="uj75gp__5EQckSvaiFo4-1" source="uj75gp__5EQckSvaiFo4-13" target="uj75gp__5EQckSvaiFo4-14" edge="1">
                    <mxGeometry relative="1" as="geometry"/>
                </mxCell>
                <mxCell id="uj75gp__5EQckSvaiFo4-13" value="30" style="ellipse;whiteSpace=wrap;html=1;aspect=fixed;fontFamily=Fira Code;fillColor=#000000;" parent="uj75gp__5EQckSvaiFo4-1" vertex="1">
                    <mxGeometry x="-40" y="200" width="40" height="40" as="geometry"/>
                </mxCell>
                <mxCell id="uj75gp__5EQckSvaiFo4-14" value="40" style="ellipse;whiteSpace=wrap;html=1;aspect=fixed;fontFamily=Fira Code;fillColor=#CC0000;" parent="uj75gp__5EQckSvaiFo4-1" vertex="1">
                    <mxGeometry x="120" y="280" width="40" height="40" as="geometry"/>
                </mxCell>
                <mxCell id="uj75gp__5EQckSvaiFo4-15" value="80" style="ellipse;whiteSpace=wrap;html=1;aspect=fixed;fontFamily=Fira Code;fillColor=#000000;" parent="uj75gp__5EQckSvaiFo4-1" vertex="1">
                    <mxGeometry x="440" y="200" width="40" height="40" as="geometry"/>
                </mxCell>
                <mxCell id="uj75gp__5EQckSvaiFo4-16" value="100" style="ellipse;whiteSpace=wrap;html=1;aspect=fixed;fontFamily=Fira Code;fillColor=#000000;" parent="uj75gp__5EQckSvaiFo4-1" vertex="1">
                    <mxGeometry x="840" y="200" width="40" height="40" as="geometry"/>
                </mxCell>
                <mxCell id="uj75gp__5EQckSvaiFo4-17" style="edgeStyle=none;rounded=0;orthogonalLoop=1;jettySize=auto;html=1;exitX=1;exitY=0;exitDx=0;exitDy=0;entryX=0;entryY=1;entryDx=0;entryDy=0;endArrow=none;endFill=0;" parent="uj75gp__5EQckSvaiFo4-1" source="uj75gp__5EQckSvaiFo4-18" target="uj75gp__5EQckSvaiFo4-13" edge="1">
                    <mxGeometry relative="1" as="geometry"/>
                </mxCell>
                <mxCell id="uj75gp__5EQckSvaiFo4-18" value="20" style="ellipse;whiteSpace=wrap;html=1;aspect=fixed;fontFamily=Fira Code;fillColor=#CC0000;" parent="uj75gp__5EQckSvaiFo4-1" vertex="1">
                    <mxGeometry x="-200" y="280" width="40" height="40" as="geometry"/>
                </mxCell>
                <mxCell id="2JRMA2_X7nD5FL0BpIUM-1" style="edgeStyle=none;rounded=0;orthogonalLoop=1;jettySize=auto;html=1;exitX=1;exitY=0;exitDx=0;exitDy=0;entryX=0;entryY=1;entryDx=0;entryDy=0;endArrow=none;endFill=0;" parent="uj75gp__5EQckSvaiFo4-1" source="2JRMA2_X7nD5FL0BpIUM-0" target="uj75gp__5EQckSvaiFo4-18" edge="1">
                    <mxGeometry relative="1" as="geometry"/>
                </mxCell>
                <mxCell id="2JRMA2_X7nD5FL0BpIUM-0" value="10" style="ellipse;whiteSpace=wrap;html=1;aspect=fixed;fontFamily=Fira Code;fillColor=#CC0000;" parent="uj75gp__5EQckSvaiFo4-1" vertex="1">
                    <mxGeometry x="-320" y="360" width="40" height="40" as="geometry"/>
                </mxCell>
            </root>
        </mxGraphModel>
    </diagram>
    <diagram name="Copy of Copy of Copy of Copy of Copy of Copy of Copy of Copy of Copy of Copy of Copy of Copy of Copy of Copy of Copy of Copy of Copy of Copy of Copy of Copy of Copy of Copy of Copy of Page-1" id="upLbflkWLhMtFbCzZCkg">
        &#xa;        &#xa;        &#xa;&#xa;&#xa;
        <mxGraphModel dx="2460" dy="1229" grid="1" gridSize="10" guides="1" tooltips="1" connect="1" arrows="1" fold="1" page="1" pageScale="1" pageWidth="800" pageHeight="800" math="0" shadow="0">
            &#xa;            &#xa;            &#xa;&#xa;&#xa;
            <root>
                &#xa;                &#xa;                &#xa;&#xa;&#xa;
                <mxCell id="lgds3ROdpKyJRRZORyry-0"/>
                &#xa;                &#xa;                &#xa;&#xa;&#xa;
                <mxCell id="lgds3ROdpKyJRRZORyry-1" parent="lgds3ROdpKyJRRZORyry-0"/>
                &#xa;                &#xa;                &#xa;&#xa;&#xa;
                <mxCell id="lgds3ROdpKyJRRZORyry-2" style="edgeStyle=none;rounded=0;orthogonalLoop=1;jettySize=auto;html=1;exitX=1;exitY=1;exitDx=0;exitDy=0;entryX=0;entryY=0;entryDx=0;entryDy=0;endArrow=none;endFill=0;" edge="1" parent="lgds3ROdpKyJRRZORyry-1" source="lgds3ROdpKyJRRZORyry-3" target="lgds3ROdpKyJRRZORyry-6">
                    &#xa;                    &#xa;                    &#xa;&#xa;&#xa;
                    <mxGeometry relative="1" as="geometry"/>
                    &#xa;                    &#xa;                    &#xa;&#xa;&#xa;
                </mxCell>
                &#xa;                &#xa;                &#xa;&#xa;&#xa;
                <mxCell id="lgds3ROdpKyJRRZORyry-3" value="70" style="ellipse;whiteSpace=wrap;html=1;aspect=fixed;fontFamily=Fira Code;fillColor=#000000;" vertex="1" parent="lgds3ROdpKyJRRZORyry-1">
                    &#xa;                    &#xa;                    &#xa;&#xa;&#xa;
                    <mxGeometry x="400" y="40" width="40" height="40" as="geometry"/>
                    &#xa;                    &#xa;                    &#xa;&#xa;&#xa;
                </mxCell>
                &#xa;                &#xa;                &#xa;&#xa;&#xa;
                <mxCell id="lgds3ROdpKyJRRZORyry-4" style="edgeStyle=none;rounded=0;orthogonalLoop=1;jettySize=auto;html=1;exitX=0;exitY=1;exitDx=0;exitDy=0;entryX=1;entryY=0;entryDx=0;entryDy=0;endArrow=none;endFill=0;" edge="1" parent="lgds3ROdpKyJRRZORyry-1" source="lgds3ROdpKyJRRZORyry-6" target="lgds3ROdpKyJRRZORyry-15">
                    &#xa;                    &#xa;                    &#xa;&#xa;&#xa;
                    <mxGeometry relative="1" as="geometry"/>
                    &#xa;                    &#xa;                    &#xa;&#xa;&#xa;
                </mxCell>
                &#xa;                &#xa;                &#xa;&#xa;&#xa;
                <mxCell id="lgds3ROdpKyJRRZORyry-5" style="edgeStyle=none;rounded=0;orthogonalLoop=1;jettySize=auto;html=1;exitX=1;exitY=1;exitDx=0;exitDy=0;entryX=0;entryY=0;entryDx=0;entryDy=0;endArrow=none;endFill=0;" edge="1" parent="lgds3ROdpKyJRRZORyry-1" source="lgds3ROdpKyJRRZORyry-6" target="lgds3ROdpKyJRRZORyry-16">
                    &#xa;                    &#xa;                    &#xa;&#xa;&#xa;
                    <mxGeometry relative="1" as="geometry"/>
                    &#xa;                    &#xa;                    &#xa;&#xa;&#xa;
                </mxCell>
                &#xa;                &#xa;                &#xa;&#xa;&#xa;
                <mxCell id="lgds3ROdpKyJRRZORyry-6" value="90" style="ellipse;whiteSpace=wrap;html=1;aspect=fixed;fontFamily=Fira Code;fillColor=#000000;" vertex="1" parent="lgds3ROdpKyJRRZORyry-1">
                    &#xa;                    &#xa;                    &#xa;&#xa;&#xa;
                    <mxGeometry x="640" y="120" width="40" height="40" as="geometry"/>
                    &#xa;                    &#xa;                    &#xa;&#xa;&#xa;
                </mxCell>
                &#xa;                &#xa;                &#xa;&#xa;&#xa;
                <mxCell id="lgds3ROdpKyJRRZORyry-7" style="edgeStyle=none;rounded=0;orthogonalLoop=1;jettySize=auto;html=1;exitX=1;exitY=0;exitDx=0;exitDy=0;entryX=0;entryY=1;entryDx=0;entryDy=0;endArrow=none;endFill=0;" edge="1" parent="lgds3ROdpKyJRRZORyry-1" source="lgds3ROdpKyJRRZORyry-10" target="lgds3ROdpKyJRRZORyry-3">
                    &#xa;                    &#xa;                    &#xa;&#xa;&#xa;
                    <mxGeometry relative="1" as="geometry"/>
                    &#xa;                    &#xa;                    &#xa;&#xa;&#xa;
                </mxCell>
                &#xa;                &#xa;                &#xa;&#xa;&#xa;
                <mxCell id="lgds3ROdpKyJRRZORyry-8" style="edgeStyle=none;rounded=0;orthogonalLoop=1;jettySize=auto;html=1;exitX=0;exitY=1;exitDx=0;exitDy=0;entryX=1;entryY=0;entryDx=0;entryDy=0;endArrow=none;endFill=0;" edge="1" parent="lgds3ROdpKyJRRZORyry-1" source="lgds3ROdpKyJRRZORyry-10" target="lgds3ROdpKyJRRZORyry-13">
                    &#xa;                    &#xa;                    &#xa;&#xa;&#xa;
                    <mxGeometry relative="1" as="geometry"/>
                    &#xa;                    &#xa;                    &#xa;&#xa;&#xa;
                </mxCell>
                &#xa;                &#xa;                &#xa;&#xa;&#xa;
                <mxCell id="lgds3ROdpKyJRRZORyry-9" style="edgeStyle=none;rounded=0;orthogonalLoop=1;jettySize=auto;html=1;exitX=1;exitY=1;exitDx=0;exitDy=0;entryX=0;entryY=0;entryDx=0;entryDy=0;endArrow=none;endFill=0;" edge="1" parent="lgds3ROdpKyJRRZORyry-1" source="lgds3ROdpKyJRRZORyry-10" target="lgds3ROdpKyJRRZORyry-11">
                    &#xa;                    &#xa;                    &#xa;&#xa;&#xa;
                    <mxGeometry relative="1" as="geometry"/>
                    &#xa;                    &#xa;                    &#xa;&#xa;&#xa;
                </mxCell>
                &#xa;                &#xa;                &#xa;&#xa;&#xa;
                <mxCell id="lgds3ROdpKyJRRZORyry-10" value="50" style="ellipse;whiteSpace=wrap;html=1;aspect=fixed;fontFamily=Fira Code;fillColor=#000000;" vertex="1" parent="lgds3ROdpKyJRRZORyry-1">
                    &#xa;                    &#xa;                    &#xa;&#xa;&#xa;
                    <mxGeometry x="160" y="120" width="40" height="40" as="geometry"/>
                    &#xa;                    &#xa;                    &#xa;&#xa;&#xa;
                </mxCell>
                &#xa;                &#xa;                &#xa;&#xa;&#xa;
                <mxCell id="lgds3ROdpKyJRRZORyry-11" value="60" style="ellipse;whiteSpace=wrap;html=1;aspect=fixed;fontFamily=Fira Code;fillColor=#000000;" vertex="1" parent="lgds3ROdpKyJRRZORyry-1">
                    &#xa;                    &#xa;                    &#xa;&#xa;&#xa;
                    <mxGeometry x="360" y="200" width="40" height="40" as="geometry"/>
                    &#xa;                    &#xa;                    &#xa;&#xa;&#xa;
                </mxCell>
                &#xa;                &#xa;                &#xa;&#xa;&#xa;
                <mxCell id="lgds3ROdpKyJRRZORyry-12" style="edgeStyle=none;rounded=0;orthogonalLoop=1;jettySize=auto;html=1;exitX=1;exitY=1;exitDx=0;exitDy=0;entryX=0;entryY=0;entryDx=0;entryDy=0;endArrow=none;endFill=0;" edge="1" parent="lgds3ROdpKyJRRZORyry-1" source="lgds3ROdpKyJRRZORyry-13" target="lgds3ROdpKyJRRZORyry-14">
                    &#xa;                    &#xa;                    &#xa;&#xa;&#xa;
                    <mxGeometry relative="1" as="geometry"/>
                    &#xa;                    &#xa;                    &#xa;&#xa;&#xa;
                </mxCell>
                &#xa;                &#xa;                &#xa;&#xa;&#xa;
                <mxCell id="lgds3ROdpKyJRRZORyry-13" value="30" style="ellipse;whiteSpace=wrap;html=1;aspect=fixed;fontFamily=Fira Code;fillColor=#CC0000;" vertex="1" parent="lgds3ROdpKyJRRZORyry-1">
                    &#xa;                    &#xa;                    &#xa;&#xa;&#xa;
                    <mxGeometry x="-40" y="200" width="40" height="40" as="geometry"/>
                    &#xa;                    &#xa;                    &#xa;&#xa;&#xa;
                </mxCell>
                &#xa;                &#xa;                &#xa;&#xa;&#xa;
                <mxCell id="lgds3ROdpKyJRRZORyry-14" value="40" style="ellipse;whiteSpace=wrap;html=1;aspect=fixed;fontFamily=Fira Code;fillColor=#000000;" vertex="1" parent="lgds3ROdpKyJRRZORyry-1">
                    &#xa;                    &#xa;                    &#xa;&#xa;&#xa;
                    <mxGeometry x="120" y="280" width="40" height="40" as="geometry"/>
                    &#xa;                    &#xa;                    &#xa;&#xa;&#xa;
                </mxCell>
                &#xa;                &#xa;                &#xa;&#xa;&#xa;
                <mxCell id="lgds3ROdpKyJRRZORyry-15" value="80" style="ellipse;whiteSpace=wrap;html=1;aspect=fixed;fontFamily=Fira Code;fillColor=#000000;" vertex="1" parent="lgds3ROdpKyJRRZORyry-1">
                    &#xa;                    &#xa;                    &#xa;&#xa;&#xa;
                    <mxGeometry x="440" y="200" width="40" height="40" as="geometry"/>
                    &#xa;                    &#xa;                    &#xa;&#xa;&#xa;
                </mxCell>
                &#xa;                &#xa;                &#xa;&#xa;&#xa;
                <mxCell id="lgds3ROdpKyJRRZORyry-16" value="100" style="ellipse;whiteSpace=wrap;html=1;aspect=fixed;fontFamily=Fira Code;fillColor=#000000;" vertex="1" parent="lgds3ROdpKyJRRZORyry-1">
                    &#xa;                    &#xa;                    &#xa;&#xa;&#xa;
                    <mxGeometry x="840" y="200" width="40" height="40" as="geometry"/>
                    &#xa;                    &#xa;                    &#xa;&#xa;&#xa;
                </mxCell>
                &#xa;                &#xa;                &#xa;&#xa;&#xa;
                <mxCell id="lgds3ROdpKyJRRZORyry-17" style="edgeStyle=none;rounded=0;orthogonalLoop=1;jettySize=auto;html=1;exitX=1;exitY=0;exitDx=0;exitDy=0;entryX=0;entryY=1;entryDx=0;entryDy=0;endArrow=none;endFill=0;" edge="1" parent="lgds3ROdpKyJRRZORyry-1" source="lgds3ROdpKyJRRZORyry-18" target="lgds3ROdpKyJRRZORyry-13">
                    &#xa;                    &#xa;                    &#xa;&#xa;&#xa;
                    <mxGeometry relative="1" as="geometry"/>
                    &#xa;                    &#xa;                    &#xa;&#xa;&#xa;
                </mxCell>
                &#xa;                &#xa;                &#xa;&#xa;&#xa;
                <mxCell id="lgds3ROdpKyJRRZORyry-18" value="20" style="ellipse;whiteSpace=wrap;html=1;aspect=fixed;fontFamily=Fira Code;fillColor=#000000;" vertex="1" parent="lgds3ROdpKyJRRZORyry-1">
                    &#xa;                    &#xa;                    &#xa;&#xa;&#xa;
                    <mxGeometry x="-200" y="280" width="40" height="40" as="geometry"/>
                    &#xa;                    &#xa;                    &#xa;&#xa;&#xa;
                </mxCell>
                &#xa;                &#xa;                &#xa;&#xa;&#xa;
                <mxCell id="lgds3ROdpKyJRRZORyry-19" style="edgeStyle=none;rounded=0;orthogonalLoop=1;jettySize=auto;html=1;exitX=1;exitY=0;exitDx=0;exitDy=0;entryX=0;entryY=1;entryDx=0;entryDy=0;endArrow=none;endFill=0;" edge="1" parent="lgds3ROdpKyJRRZORyry-1" source="lgds3ROdpKyJRRZORyry-20" target="lgds3ROdpKyJRRZORyry-18">
                    &#xa;                    &#xa;                    &#xa;&#xa;&#xa;
                    <mxGeometry relative="1" as="geometry"/>
                    &#xa;                    &#xa;                    &#xa;&#xa;&#xa;
                </mxCell>
                &#xa;                &#xa;                &#xa;&#xa;&#xa;
                <mxCell id="lgds3ROdpKyJRRZORyry-20" value="10" style="ellipse;whiteSpace=wrap;html=1;aspect=fixed;fontFamily=Fira Code;fillColor=#CC0000;" vertex="1" parent="lgds3ROdpKyJRRZORyry-1">
                    &#xa;                    &#xa;                    &#xa;&#xa;&#xa;
                    <mxGeometry x="-320" y="360" width="40" height="40" as="geometry"/>
                    &#xa;                    &#xa;                    &#xa;&#xa;&#xa;
                </mxCell>
                &#xa;                &#xa;                &#xa;&#xa;&#xa;
            </root>
            &#xa;            &#xa;            &#xa;&#xa;&#xa;
        </mxGraphModel>
        &#xa;        &#xa;        &#xa;&#xa;&#xa;
    </diagram>
    <diagram name="Copy of Copy of Copy of Copy of Copy of Copy of Copy of Copy of Copy of Copy of Copy of Copy of Copy of Copy of Copy of Copy of Copy of Copy of Copy of Copy of Copy of Copy of Copy of Copy of Page-1" id="Oi-17zEfnxbX4VWBn6CC">
        &#xa;        &#xa;        &#xa;&#xa;&#xa;
        <mxGraphModel dx="2460" dy="1229" grid="1" gridSize="10" guides="1" tooltips="1" connect="1" arrows="1" fold="1" page="1" pageScale="1" pageWidth="800" pageHeight="800" math="0" shadow="0">
            &#xa;            &#xa;            &#xa;&#xa;&#xa;
            <root>
                &#xa;                &#xa;                &#xa;&#xa;&#xa;
                <mxCell id="Q-iPnMj_wUFsDtCsZ3K0-0"/>
                &#xa;                &#xa;                &#xa;&#xa;&#xa;
                <mxCell id="Q-iPnMj_wUFsDtCsZ3K0-1" parent="Q-iPnMj_wUFsDtCsZ3K0-0"/>
                &#xa;                &#xa;                &#xa;&#xa;&#xa;
                <mxCell id="Q-iPnMj_wUFsDtCsZ3K0-2" style="edgeStyle=none;rounded=0;orthogonalLoop=1;jettySize=auto;html=1;exitX=1;exitY=1;exitDx=0;exitDy=0;entryX=0;entryY=0;entryDx=0;entryDy=0;endArrow=none;endFill=0;" edge="1" parent="Q-iPnMj_wUFsDtCsZ3K0-1" source="Q-iPnMj_wUFsDtCsZ3K0-3" target="Q-iPnMj_wUFsDtCsZ3K0-6">
                    &#xa;                    &#xa;                    &#xa;&#xa;&#xa;
                    <mxGeometry relative="1" as="geometry"/>
                    &#xa;                    &#xa;                    &#xa;&#xa;&#xa;
                </mxCell>
                &#xa;                &#xa;                &#xa;&#xa;&#xa;
                <mxCell id="Q-iPnMj_wUFsDtCsZ3K0-3" value="70" style="ellipse;whiteSpace=wrap;html=1;aspect=fixed;fontFamily=Fira Code;fillColor=#000000;" vertex="1" parent="Q-iPnMj_wUFsDtCsZ3K0-1">
                    &#xa;                    &#xa;                    &#xa;&#xa;&#xa;
                    <mxGeometry x="400" y="40" width="40" height="40" as="geometry"/>
                    &#xa;                    &#xa;                    &#xa;&#xa;&#xa;
                </mxCell>
                &#xa;                &#xa;                &#xa;&#xa;&#xa;
                <mxCell id="Q-iPnMj_wUFsDtCsZ3K0-4" style="edgeStyle=none;rounded=0;orthogonalLoop=1;jettySize=auto;html=1;exitX=0;exitY=1;exitDx=0;exitDy=0;entryX=1;entryY=0;entryDx=0;entryDy=0;endArrow=none;endFill=0;" edge="1" parent="Q-iPnMj_wUFsDtCsZ3K0-1" source="Q-iPnMj_wUFsDtCsZ3K0-6" target="Q-iPnMj_wUFsDtCsZ3K0-15">
                    &#xa;                    &#xa;                    &#xa;&#xa;&#xa;
                    <mxGeometry relative="1" as="geometry"/>
                    &#xa;                    &#xa;                    &#xa;&#xa;&#xa;
                </mxCell>
                &#xa;                &#xa;                &#xa;&#xa;&#xa;
                <mxCell id="Q-iPnMj_wUFsDtCsZ3K0-5" style="edgeStyle=none;rounded=0;orthogonalLoop=1;jettySize=auto;html=1;exitX=1;exitY=1;exitDx=0;exitDy=0;entryX=0;entryY=0;entryDx=0;entryDy=0;endArrow=none;endFill=0;" edge="1" parent="Q-iPnMj_wUFsDtCsZ3K0-1" source="Q-iPnMj_wUFsDtCsZ3K0-6" target="Q-iPnMj_wUFsDtCsZ3K0-16">
                    &#xa;                    &#xa;                    &#xa;&#xa;&#xa;
                    <mxGeometry relative="1" as="geometry"/>
                    &#xa;                    &#xa;                    &#xa;&#xa;&#xa;
                </mxCell>
                &#xa;                &#xa;                &#xa;&#xa;&#xa;
                <mxCell id="Q-iPnMj_wUFsDtCsZ3K0-6" value="90" style="ellipse;whiteSpace=wrap;html=1;aspect=fixed;fontFamily=Fira Code;fillColor=#000000;" vertex="1" parent="Q-iPnMj_wUFsDtCsZ3K0-1">
                    &#xa;                    &#xa;                    &#xa;&#xa;&#xa;
                    <mxGeometry x="640" y="120" width="40" height="40" as="geometry"/>
                    &#xa;                    &#xa;                    &#xa;&#xa;&#xa;
                </mxCell>
                &#xa;                &#xa;                &#xa;&#xa;&#xa;
                <mxCell id="Q-iPnMj_wUFsDtCsZ3K0-7" style="edgeStyle=none;rounded=0;orthogonalLoop=1;jettySize=auto;html=1;exitX=1;exitY=0;exitDx=0;exitDy=0;entryX=0;entryY=1;entryDx=0;entryDy=0;endArrow=none;endFill=0;" edge="1" parent="Q-iPnMj_wUFsDtCsZ3K0-1" source="Q-iPnMj_wUFsDtCsZ3K0-10" target="Q-iPnMj_wUFsDtCsZ3K0-3">
                    &#xa;                    &#xa;                    &#xa;&#xa;&#xa;
                    <mxGeometry relative="1" as="geometry"/>
                    &#xa;                    &#xa;                    &#xa;&#xa;&#xa;
                </mxCell>
                &#xa;                &#xa;                &#xa;&#xa;&#xa;
                <mxCell id="Q-iPnMj_wUFsDtCsZ3K0-8" style="edgeStyle=none;rounded=0;orthogonalLoop=1;jettySize=auto;html=1;exitX=0;exitY=1;exitDx=0;exitDy=0;entryX=1;entryY=0;entryDx=0;entryDy=0;endArrow=none;endFill=0;" edge="1" parent="Q-iPnMj_wUFsDtCsZ3K0-1" source="Q-iPnMj_wUFsDtCsZ3K0-10" target="Q-iPnMj_wUFsDtCsZ3K0-13">
                    &#xa;                    &#xa;                    &#xa;&#xa;&#xa;
                    <mxGeometry relative="1" as="geometry"/>
                    &#xa;                    &#xa;                    &#xa;&#xa;&#xa;
                </mxCell>
                &#xa;                &#xa;                &#xa;&#xa;&#xa;
                <mxCell id="Q-iPnMj_wUFsDtCsZ3K0-9" style="edgeStyle=none;rounded=0;orthogonalLoop=1;jettySize=auto;html=1;exitX=1;exitY=1;exitDx=0;exitDy=0;entryX=0;entryY=0;entryDx=0;entryDy=0;endArrow=none;endFill=0;" edge="1" parent="Q-iPnMj_wUFsDtCsZ3K0-1" source="Q-iPnMj_wUFsDtCsZ3K0-10" target="Q-iPnMj_wUFsDtCsZ3K0-11">
                    &#xa;                    &#xa;                    &#xa;&#xa;&#xa;
                    <mxGeometry relative="1" as="geometry"/>
                    &#xa;                    &#xa;                    &#xa;&#xa;&#xa;
                </mxCell>
                &#xa;                &#xa;                &#xa;&#xa;&#xa;
                <mxCell id="Q-iPnMj_wUFsDtCsZ3K0-10" value="50" style="ellipse;whiteSpace=wrap;html=1;aspect=fixed;fontFamily=Fira Code;fillColor=#000000;" vertex="1" parent="Q-iPnMj_wUFsDtCsZ3K0-1">
                    &#xa;                    &#xa;                    &#xa;&#xa;&#xa;
                    <mxGeometry x="160" y="120" width="40" height="40" as="geometry"/>
                    &#xa;                    &#xa;                    &#xa;&#xa;&#xa;
                </mxCell>
                &#xa;                &#xa;                &#xa;&#xa;&#xa;
                <mxCell id="Q-iPnMj_wUFsDtCsZ3K0-11" value="60" style="ellipse;whiteSpace=wrap;html=1;aspect=fixed;fontFamily=Fira Code;fillColor=#000000;" vertex="1" parent="Q-iPnMj_wUFsDtCsZ3K0-1">
                    &#xa;                    &#xa;                    &#xa;&#xa;&#xa;
                    <mxGeometry x="360" y="200" width="40" height="40" as="geometry"/>
                    &#xa;                    &#xa;                    &#xa;&#xa;&#xa;
                </mxCell>
                &#xa;                &#xa;                &#xa;&#xa;&#xa;
                <mxCell id="Q-iPnMj_wUFsDtCsZ3K0-12" style="edgeStyle=none;rounded=0;orthogonalLoop=1;jettySize=auto;html=1;exitX=1;exitY=1;exitDx=0;exitDy=0;entryX=0;entryY=0;entryDx=0;entryDy=0;endArrow=none;endFill=0;" edge="1" parent="Q-iPnMj_wUFsDtCsZ3K0-1" source="Q-iPnMj_wUFsDtCsZ3K0-13" target="Q-iPnMj_wUFsDtCsZ3K0-14">
                    &#xa;                    &#xa;                    &#xa;&#xa;&#xa;
                    <mxGeometry relative="1" as="geometry"/>
                    &#xa;                    &#xa;                    &#xa;&#xa;&#xa;
                </mxCell>
                &#xa;                &#xa;                &#xa;&#xa;&#xa;
                <mxCell id="Q-iPnMj_wUFsDtCsZ3K0-13" value="30" style="ellipse;whiteSpace=wrap;html=1;aspect=fixed;fontFamily=Fira Code;fillColor=#CC0000;" vertex="1" parent="Q-iPnMj_wUFsDtCsZ3K0-1">
                    &#xa;                    &#xa;                    &#xa;&#xa;&#xa;
                    <mxGeometry x="-40" y="200" width="40" height="40" as="geometry"/>
                    &#xa;                    &#xa;                    &#xa;&#xa;&#xa;
                </mxCell>
                &#xa;                &#xa;                &#xa;&#xa;&#xa;
                <mxCell id="Q-iPnMj_wUFsDtCsZ3K0-14" value="40" style="ellipse;whiteSpace=wrap;html=1;aspect=fixed;fontFamily=Fira Code;fillColor=#000000;" vertex="1" parent="Q-iPnMj_wUFsDtCsZ3K0-1">
                    &#xa;                    &#xa;                    &#xa;&#xa;&#xa;
                    <mxGeometry x="120" y="280" width="40" height="40" as="geometry"/>
                    &#xa;                    &#xa;                    &#xa;&#xa;&#xa;
                </mxCell>
                &#xa;                &#xa;                &#xa;&#xa;&#xa;
                <mxCell id="Q-iPnMj_wUFsDtCsZ3K0-15" value="80" style="ellipse;whiteSpace=wrap;html=1;aspect=fixed;fontFamily=Fira Code;fillColor=#000000;" vertex="1" parent="Q-iPnMj_wUFsDtCsZ3K0-1">
                    &#xa;                    &#xa;                    &#xa;&#xa;&#xa;
                    <mxGeometry x="440" y="200" width="40" height="40" as="geometry"/>
                    &#xa;                    &#xa;                    &#xa;&#xa;&#xa;
                </mxCell>
                &#xa;                &#xa;                &#xa;&#xa;&#xa;
                <mxCell id="Q-iPnMj_wUFsDtCsZ3K0-16" value="100" style="ellipse;whiteSpace=wrap;html=1;aspect=fixed;fontFamily=Fira Code;fillColor=#000000;" vertex="1" parent="Q-iPnMj_wUFsDtCsZ3K0-1">
                    &#xa;                    &#xa;                    &#xa;&#xa;&#xa;
                    <mxGeometry x="840" y="200" width="40" height="40" as="geometry"/>
                    &#xa;                    &#xa;                    &#xa;&#xa;&#xa;
                </mxCell>
                &#xa;                &#xa;                &#xa;&#xa;&#xa;
                <mxCell id="Q-iPnMj_wUFsDtCsZ3K0-17" style="edgeStyle=none;rounded=0;orthogonalLoop=1;jettySize=auto;html=1;exitX=1;exitY=0;exitDx=0;exitDy=0;entryX=0;entryY=1;entryDx=0;entryDy=0;endArrow=none;endFill=0;" edge="1" parent="Q-iPnMj_wUFsDtCsZ3K0-1" source="Q-iPnMj_wUFsDtCsZ3K0-18" target="Q-iPnMj_wUFsDtCsZ3K0-13">
                    &#xa;                    &#xa;                    &#xa;&#xa;&#xa;
                    <mxGeometry relative="1" as="geometry"/>
                    &#xa;                    &#xa;                    &#xa;&#xa;&#xa;
                </mxCell>
                &#xa;                &#xa;                &#xa;&#xa;&#xa;
                <mxCell id="Q-iPnMj_wUFsDtCsZ3K0-18" value="20" style="ellipse;whiteSpace=wrap;html=1;aspect=fixed;fontFamily=Fira Code;fillColor=#000000;" vertex="1" parent="Q-iPnMj_wUFsDtCsZ3K0-1">
                    &#xa;                    &#xa;                    &#xa;&#xa;&#xa;
                    <mxGeometry x="-200" y="280" width="40" height="40" as="geometry"/>
                    &#xa;                    &#xa;                    &#xa;&#xa;&#xa;
                </mxCell>
                &#xa;                &#xa;                &#xa;&#xa;&#xa;
                <mxCell id="Q-iPnMj_wUFsDtCsZ3K0-19" style="edgeStyle=none;rounded=0;orthogonalLoop=1;jettySize=auto;html=1;exitX=1;exitY=0;exitDx=0;exitDy=0;entryX=0;entryY=1;entryDx=0;entryDy=0;endArrow=none;endFill=0;" edge="1" parent="Q-iPnMj_wUFsDtCsZ3K0-1" source="Q-iPnMj_wUFsDtCsZ3K0-20" target="Q-iPnMj_wUFsDtCsZ3K0-18">
                    &#xa;                    &#xa;                    &#xa;&#xa;&#xa;
                    <mxGeometry relative="1" as="geometry"/>
                    &#xa;                    &#xa;                    &#xa;&#xa;&#xa;
                </mxCell>
                &#xa;                &#xa;                &#xa;&#xa;&#xa;
                <mxCell id="Q-iPnMj_wUFsDtCsZ3K0-20" value="10" style="ellipse;whiteSpace=wrap;html=1;aspect=fixed;fontFamily=Fira Code;fillColor=#CC0000;" vertex="1" parent="Q-iPnMj_wUFsDtCsZ3K0-1">
                    &#xa;                    &#xa;                    &#xa;&#xa;&#xa;
                    <mxGeometry x="-320" y="360" width="40" height="40" as="geometry"/>
                    &#xa;                    &#xa;                    &#xa;&#xa;&#xa;
                </mxCell>
                &#xa;                &#xa;                &#xa;&#xa;&#xa;
                <mxCell id="Q-iPnMj_wUFsDtCsZ3K0-22" style="edgeStyle=none;rounded=0;orthogonalLoop=1;jettySize=auto;html=1;exitX=1;exitY=0;exitDx=0;exitDy=0;entryX=0;entryY=1;entryDx=0;entryDy=0;endArrow=none;endFill=0;" edge="1" parent="Q-iPnMj_wUFsDtCsZ3K0-1" source="Q-iPnMj_wUFsDtCsZ3K0-21" target="Q-iPnMj_wUFsDtCsZ3K0-20">
                    &#xa;                    &#xa;                    &#xa;&#xa;&#xa;
                    <mxGeometry relative="1" as="geometry"/>
                    &#xa;                    &#xa;                    &#xa;&#xa;&#xa;
                </mxCell>
                &#xa;                &#xa;                &#xa;&#xa;&#xa;
                <mxCell id="Q-iPnMj_wUFsDtCsZ3K0-21" value="5" style="ellipse;whiteSpace=wrap;html=1;aspect=fixed;fontFamily=Fira Code;fillColor=#CC0000;" vertex="1" parent="Q-iPnMj_wUFsDtCsZ3K0-1">
                    &#xa;                    &#xa;                    &#xa;&#xa;&#xa;
                    <mxGeometry x="-410" y="440" width="40" height="40" as="geometry"/>
                    &#xa;                    &#xa;                    &#xa;&#xa;&#xa;
                </mxCell>
                &#xa;                &#xa;                &#xa;&#xa;&#xa;
            </root>
            &#xa;            &#xa;            &#xa;&#xa;&#xa;
        </mxGraphModel>
        &#xa;        &#xa;        &#xa;&#xa;&#xa;
    </diagram>
    <diagram name="Copy of Copy of Copy of Copy of Copy of Copy of Copy of Copy of Copy of Copy of Copy of Copy of Copy of Copy of Copy of Copy of Copy of Copy of Copy of Copy of Copy of Copy of Copy of Copy of Page-1" id="ubSR2nIkSQSQgs2dLTZN">
        &#xa;        &#xa;        &#xa;&#xa;&#xa;
        <mxGraphModel dx="2460" dy="1229" grid="1" gridSize="10" guides="1" tooltips="1" connect="1" arrows="1" fold="1" page="1" pageScale="1" pageWidth="800" pageHeight="800" math="0" shadow="0">
            &#xa;            &#xa;            &#xa;&#xa;&#xa;
            <root>
                &#xa;                &#xa;                &#xa;&#xa;&#xa;
                <mxCell id="muGauDL0Xlnk-7ZJqSjO-0"/>
                &#xa;                &#xa;                &#xa;&#xa;&#xa;
                <mxCell id="muGauDL0Xlnk-7ZJqSjO-1" parent="muGauDL0Xlnk-7ZJqSjO-0"/>
                &#xa;                &#xa;                &#xa;&#xa;&#xa;
                <mxCell id="muGauDL0Xlnk-7ZJqSjO-2" style="edgeStyle=none;rounded=0;orthogonalLoop=1;jettySize=auto;html=1;exitX=1;exitY=1;exitDx=0;exitDy=0;entryX=0;entryY=0;entryDx=0;entryDy=0;endArrow=none;endFill=0;" edge="1" parent="muGauDL0Xlnk-7ZJqSjO-1" source="muGauDL0Xlnk-7ZJqSjO-3" target="muGauDL0Xlnk-7ZJqSjO-6">
                    &#xa;                    &#xa;                    &#xa;&#xa;&#xa;
                    <mxGeometry relative="1" as="geometry"/>
                    &#xa;                    &#xa;                    &#xa;&#xa;&#xa;
                </mxCell>
                &#xa;                &#xa;                &#xa;&#xa;&#xa;
                <mxCell id="muGauDL0Xlnk-7ZJqSjO-3" value="70" style="ellipse;whiteSpace=wrap;html=1;aspect=fixed;fontFamily=Fira Code;fillColor=#000000;" vertex="1" parent="muGauDL0Xlnk-7ZJqSjO-1">
                    &#xa;                    &#xa;                    &#xa;&#xa;&#xa;
                    <mxGeometry x="400" y="40" width="40" height="40" as="geometry"/>
                    &#xa;                    &#xa;                    &#xa;&#xa;&#xa;
                </mxCell>
                &#xa;                &#xa;                &#xa;&#xa;&#xa;
                <mxCell id="muGauDL0Xlnk-7ZJqSjO-4" style="edgeStyle=none;rounded=0;orthogonalLoop=1;jettySize=auto;html=1;exitX=0;exitY=1;exitDx=0;exitDy=0;entryX=1;entryY=0;entryDx=0;entryDy=0;endArrow=none;endFill=0;" edge="1" parent="muGauDL0Xlnk-7ZJqSjO-1" source="muGauDL0Xlnk-7ZJqSjO-6" target="muGauDL0Xlnk-7ZJqSjO-15">
                    &#xa;                    &#xa;                    &#xa;&#xa;&#xa;
                    <mxGeometry relative="1" as="geometry"/>
                    &#xa;                    &#xa;                    &#xa;&#xa;&#xa;
                </mxCell>
                &#xa;                &#xa;                &#xa;&#xa;&#xa;
                <mxCell id="muGauDL0Xlnk-7ZJqSjO-5" style="edgeStyle=none;rounded=0;orthogonalLoop=1;jettySize=auto;html=1;exitX=1;exitY=1;exitDx=0;exitDy=0;entryX=0;entryY=0;entryDx=0;entryDy=0;endArrow=none;endFill=0;" edge="1" parent="muGauDL0Xlnk-7ZJqSjO-1" source="muGauDL0Xlnk-7ZJqSjO-6" target="muGauDL0Xlnk-7ZJqSjO-16">
                    &#xa;                    &#xa;                    &#xa;&#xa;&#xa;
                    <mxGeometry relative="1" as="geometry"/>
                    &#xa;                    &#xa;                    &#xa;&#xa;&#xa;
                </mxCell>
                &#xa;                &#xa;                &#xa;&#xa;&#xa;
                <mxCell id="muGauDL0Xlnk-7ZJqSjO-6" value="90" style="ellipse;whiteSpace=wrap;html=1;aspect=fixed;fontFamily=Fira Code;fillColor=#000000;" vertex="1" parent="muGauDL0Xlnk-7ZJqSjO-1">
                    &#xa;                    &#xa;                    &#xa;&#xa;&#xa;
                    <mxGeometry x="640" y="120" width="40" height="40" as="geometry"/>
                    &#xa;                    &#xa;                    &#xa;&#xa;&#xa;
                </mxCell>
                &#xa;                &#xa;                &#xa;&#xa;&#xa;
                <mxCell id="muGauDL0Xlnk-7ZJqSjO-7" style="edgeStyle=none;rounded=0;orthogonalLoop=1;jettySize=auto;html=1;exitX=1;exitY=0;exitDx=0;exitDy=0;entryX=0;entryY=1;entryDx=0;entryDy=0;endArrow=none;endFill=0;" edge="1" parent="muGauDL0Xlnk-7ZJqSjO-1" source="muGauDL0Xlnk-7ZJqSjO-10" target="muGauDL0Xlnk-7ZJqSjO-3">
                    &#xa;                    &#xa;                    &#xa;&#xa;&#xa;
                    <mxGeometry relative="1" as="geometry"/>
                    &#xa;                    &#xa;                    &#xa;&#xa;&#xa;
                </mxCell>
                &#xa;                &#xa;                &#xa;&#xa;&#xa;
                <mxCell id="muGauDL0Xlnk-7ZJqSjO-8" style="edgeStyle=none;rounded=0;orthogonalLoop=1;jettySize=auto;html=1;exitX=0;exitY=1;exitDx=0;exitDy=0;entryX=1;entryY=0;entryDx=0;entryDy=0;endArrow=none;endFill=0;" edge="1" parent="muGauDL0Xlnk-7ZJqSjO-1" source="muGauDL0Xlnk-7ZJqSjO-10" target="muGauDL0Xlnk-7ZJqSjO-13">
                    &#xa;                    &#xa;                    &#xa;&#xa;&#xa;
                    <mxGeometry relative="1" as="geometry"/>
                    &#xa;                    &#xa;                    &#xa;&#xa;&#xa;
                </mxCell>
                &#xa;                &#xa;                &#xa;&#xa;&#xa;
                <mxCell id="muGauDL0Xlnk-7ZJqSjO-9" style="edgeStyle=none;rounded=0;orthogonalLoop=1;jettySize=auto;html=1;exitX=1;exitY=1;exitDx=0;exitDy=0;entryX=0;entryY=0;entryDx=0;entryDy=0;endArrow=none;endFill=0;" edge="1" parent="muGauDL0Xlnk-7ZJqSjO-1" source="muGauDL0Xlnk-7ZJqSjO-10" target="muGauDL0Xlnk-7ZJqSjO-11">
                    &#xa;                    &#xa;                    &#xa;&#xa;&#xa;
                    <mxGeometry relative="1" as="geometry"/>
                    &#xa;                    &#xa;                    &#xa;&#xa;&#xa;
                </mxCell>
                &#xa;                &#xa;                &#xa;&#xa;&#xa;
                <mxCell id="muGauDL0Xlnk-7ZJqSjO-10" value="50" style="ellipse;whiteSpace=wrap;html=1;aspect=fixed;fontFamily=Fira Code;fillColor=#000000;" vertex="1" parent="muGauDL0Xlnk-7ZJqSjO-1">
                    &#xa;                    &#xa;                    &#xa;&#xa;&#xa;
                    <mxGeometry x="160" y="120" width="40" height="40" as="geometry"/>
                    &#xa;                    &#xa;                    &#xa;&#xa;&#xa;
                </mxCell>
                &#xa;                &#xa;                &#xa;&#xa;&#xa;
                <mxCell id="muGauDL0Xlnk-7ZJqSjO-11" value="60" style="ellipse;whiteSpace=wrap;html=1;aspect=fixed;fontFamily=Fira Code;fillColor=#000000;" vertex="1" parent="muGauDL0Xlnk-7ZJqSjO-1">
                    &#xa;                    &#xa;                    &#xa;&#xa;&#xa;
                    <mxGeometry x="360" y="200" width="40" height="40" as="geometry"/>
                    &#xa;                    &#xa;                    &#xa;&#xa;&#xa;
                </mxCell>
                &#xa;                &#xa;                &#xa;&#xa;&#xa;
                <mxCell id="muGauDL0Xlnk-7ZJqSjO-12" style="edgeStyle=none;rounded=0;orthogonalLoop=1;jettySize=auto;html=1;exitX=1;exitY=1;exitDx=0;exitDy=0;entryX=0;entryY=0;entryDx=0;entryDy=0;endArrow=none;endFill=0;" edge="1" parent="muGauDL0Xlnk-7ZJqSjO-1" source="muGauDL0Xlnk-7ZJqSjO-13" target="muGauDL0Xlnk-7ZJqSjO-14">
                    &#xa;                    &#xa;                    &#xa;&#xa;&#xa;
                    <mxGeometry relative="1" as="geometry"/>
                    &#xa;                    &#xa;                    &#xa;&#xa;&#xa;
                </mxCell>
                &#xa;                &#xa;                &#xa;&#xa;&#xa;
                <mxCell id="muGauDL0Xlnk-7ZJqSjO-13" value="30" style="ellipse;whiteSpace=wrap;html=1;aspect=fixed;fontFamily=Fira Code;fillColor=#CC0000;" vertex="1" parent="muGauDL0Xlnk-7ZJqSjO-1">
                    &#xa;                    &#xa;                    &#xa;&#xa;&#xa;
                    <mxGeometry x="-40" y="200" width="40" height="40" as="geometry"/>
                    &#xa;                    &#xa;                    &#xa;&#xa;&#xa;
                </mxCell>
                &#xa;                &#xa;                &#xa;&#xa;&#xa;
                <mxCell id="muGauDL0Xlnk-7ZJqSjO-14" value="40" style="ellipse;whiteSpace=wrap;html=1;aspect=fixed;fontFamily=Fira Code;fillColor=#000000;" vertex="1" parent="muGauDL0Xlnk-7ZJqSjO-1">
                    &#xa;                    &#xa;                    &#xa;&#xa;&#xa;
                    <mxGeometry x="120" y="280" width="40" height="40" as="geometry"/>
                    &#xa;                    &#xa;                    &#xa;&#xa;&#xa;
                </mxCell>
                &#xa;                &#xa;                &#xa;&#xa;&#xa;
                <mxCell id="muGauDL0Xlnk-7ZJqSjO-15" value="80" style="ellipse;whiteSpace=wrap;html=1;aspect=fixed;fontFamily=Fira Code;fillColor=#000000;" vertex="1" parent="muGauDL0Xlnk-7ZJqSjO-1">
                    &#xa;                    &#xa;                    &#xa;&#xa;&#xa;
                    <mxGeometry x="440" y="200" width="40" height="40" as="geometry"/>
                    &#xa;                    &#xa;                    &#xa;&#xa;&#xa;
                </mxCell>
                &#xa;                &#xa;                &#xa;&#xa;&#xa;
                <mxCell id="muGauDL0Xlnk-7ZJqSjO-16" value="100" style="ellipse;whiteSpace=wrap;html=1;aspect=fixed;fontFamily=Fira Code;fillColor=#000000;" vertex="1" parent="muGauDL0Xlnk-7ZJqSjO-1">
                    &#xa;                    &#xa;                    &#xa;&#xa;&#xa;
                    <mxGeometry x="840" y="200" width="40" height="40" as="geometry"/>
                    &#xa;                    &#xa;                    &#xa;&#xa;&#xa;
                </mxCell>
                &#xa;                &#xa;                &#xa;&#xa;&#xa;
                <mxCell id="muGauDL0Xlnk-7ZJqSjO-17" style="edgeStyle=none;rounded=0;orthogonalLoop=1;jettySize=auto;html=1;exitX=1;exitY=0;exitDx=0;exitDy=0;entryX=0;entryY=1;entryDx=0;entryDy=0;endArrow=none;endFill=0;" edge="1" parent="muGauDL0Xlnk-7ZJqSjO-1" source="muGauDL0Xlnk-7ZJqSjO-18" target="muGauDL0Xlnk-7ZJqSjO-13">
                    &#xa;                    &#xa;                    &#xa;&#xa;&#xa;
                    <mxGeometry relative="1" as="geometry"/>
                    &#xa;                    &#xa;                    &#xa;&#xa;&#xa;
                </mxCell>
                &#xa;                &#xa;                &#xa;&#xa;&#xa;
                <mxCell id="9U6_N1vOchumkFPPOspc-2" style="edgeStyle=none;rounded=0;orthogonalLoop=1;jettySize=auto;html=1;exitX=1;exitY=1;exitDx=0;exitDy=0;entryX=0;entryY=0;entryDx=0;entryDy=0;endArrow=none;endFill=0;" edge="1" parent="muGauDL0Xlnk-7ZJqSjO-1" source="muGauDL0Xlnk-7ZJqSjO-18" target="muGauDL0Xlnk-7ZJqSjO-20">
                    &#xa;                    &#xa;                    &#xa;&#xa;&#xa;
                    <mxGeometry relative="1" as="geometry"/>
                    &#xa;                    &#xa;                    &#xa;&#xa;&#xa;
                </mxCell>
                &#xa;                &#xa;                &#xa;&#xa;&#xa;
                <mxCell id="muGauDL0Xlnk-7ZJqSjO-18" value="10" style="ellipse;whiteSpace=wrap;html=1;aspect=fixed;fontFamily=Fira Code;fillColor=#CC0000;" vertex="1" parent="muGauDL0Xlnk-7ZJqSjO-1">
                    &#xa;                    &#xa;                    &#xa;&#xa;&#xa;
                    <mxGeometry x="-200" y="280" width="40" height="40" as="geometry"/>
                    &#xa;                    &#xa;                    &#xa;&#xa;&#xa;
                </mxCell>
                &#xa;                &#xa;                &#xa;&#xa;&#xa;
                <mxCell id="muGauDL0Xlnk-7ZJqSjO-20" value="20" style="ellipse;whiteSpace=wrap;html=1;aspect=fixed;fontFamily=Fira Code;fillColor=#000000;" vertex="1" parent="muGauDL0Xlnk-7ZJqSjO-1">
                    &#xa;                    &#xa;                    &#xa;&#xa;&#xa;
                    <mxGeometry x="-120" y="360" width="40" height="40" as="geometry"/>
                    &#xa;                    &#xa;                    &#xa;&#xa;&#xa;
                </mxCell>
                &#xa;                &#xa;                &#xa;&#xa;&#xa;
                <mxCell id="9U6_N1vOchumkFPPOspc-1" style="edgeStyle=none;rounded=0;orthogonalLoop=1;jettySize=auto;html=1;exitX=1;exitY=0;exitDx=0;exitDy=0;entryX=0;entryY=1;entryDx=0;entryDy=0;endArrow=none;endFill=0;" edge="1" parent="muGauDL0Xlnk-7ZJqSjO-1" source="muGauDL0Xlnk-7ZJqSjO-21" target="muGauDL0Xlnk-7ZJqSjO-18">
                    &#xa;                    &#xa;                    &#xa;&#xa;&#xa;
                    <mxGeometry relative="1" as="geometry"/>
                    &#xa;                    &#xa;                    &#xa;&#xa;&#xa;
                </mxCell>
                &#xa;                &#xa;                &#xa;&#xa;&#xa;
                <mxCell id="muGauDL0Xlnk-7ZJqSjO-21" value="5" style="ellipse;whiteSpace=wrap;html=1;aspect=fixed;fontFamily=Fira Code;fillColor=#CC0000;" vertex="1" parent="muGauDL0Xlnk-7ZJqSjO-1">
                    &#xa;                    &#xa;                    &#xa;&#xa;&#xa;
                    <mxGeometry x="-280" y="360" width="40" height="40" as="geometry"/>
                    &#xa;                    &#xa;                    &#xa;&#xa;&#xa;
                </mxCell>
                &#xa;                &#xa;                &#xa;&#xa;&#xa;
            </root>
            &#xa;            &#xa;            &#xa;&#xa;&#xa;
        </mxGraphModel>
        &#xa;        &#xa;        &#xa;&#xa;&#xa;
    </diagram>
    <diagram name="Copy of Copy of Copy of Copy of Copy of Copy of Copy of Copy of Copy of Copy of Copy of Copy of Copy of Copy of Copy of Copy of Copy of Copy of Copy of Copy of Copy of Copy of Copy of Copy of Copy of Page-1" id="l46ro7g5WUgquse8IsTd">
        &#xa;
        <mxGraphModel dx="1242" dy="860" grid="1" gridSize="10" guides="1" tooltips="1" connect="1" arrows="1" fold="1" page="1" pageScale="1" pageWidth="800" pageHeight="800" math="0" shadow="0">
            &#xa;
            <root>
                &#xa;
                <mxCell id="qYisCKZclI8Z0jJhN5hJ-0"/>
                &#xa;
                <mxCell id="qYisCKZclI8Z0jJhN5hJ-1" parent="qYisCKZclI8Z0jJhN5hJ-0"/>
                &#xa;
                <mxCell id="qYisCKZclI8Z0jJhN5hJ-2" style="edgeStyle=none;rounded=0;orthogonalLoop=1;jettySize=auto;html=1;exitX=1;exitY=1;exitDx=0;exitDy=0;entryX=0;entryY=0;entryDx=0;entryDy=0;endArrow=none;endFill=0;" parent="qYisCKZclI8Z0jJhN5hJ-1" source="qYisCKZclI8Z0jJhN5hJ-3" target="qYisCKZclI8Z0jJhN5hJ-6" edge="1">
                    &#xa;
                    <mxGeometry relative="1" as="geometry"/>
                    &#xa;
                </mxCell>
                &#xa;
                <mxCell id="qYisCKZclI8Z0jJhN5hJ-3" value="70" style="ellipse;whiteSpace=wrap;html=1;aspect=fixed;fontFamily=Fira Code;fillColor=#000000;" parent="qYisCKZclI8Z0jJhN5hJ-1" vertex="1">
                    &#xa;
                    <mxGeometry x="400" y="40" width="40" height="40" as="geometry"/>
                    &#xa;
                </mxCell>
                &#xa;
                <mxCell id="qYisCKZclI8Z0jJhN5hJ-4" style="edgeStyle=none;rounded=0;orthogonalLoop=1;jettySize=auto;html=1;exitX=0;exitY=1;exitDx=0;exitDy=0;entryX=1;entryY=0;entryDx=0;entryDy=0;endArrow=none;endFill=0;" parent="qYisCKZclI8Z0jJhN5hJ-1" source="qYisCKZclI8Z0jJhN5hJ-6" target="qYisCKZclI8Z0jJhN5hJ-15" edge="1">
                    &#xa;
                    <mxGeometry relative="1" as="geometry"/>
                    &#xa;
                </mxCell>
                &#xa;
                <mxCell id="qYisCKZclI8Z0jJhN5hJ-5" style="edgeStyle=none;rounded=0;orthogonalLoop=1;jettySize=auto;html=1;exitX=1;exitY=1;exitDx=0;exitDy=0;entryX=0;entryY=0;entryDx=0;entryDy=0;endArrow=none;endFill=0;" parent="qYisCKZclI8Z0jJhN5hJ-1" source="qYisCKZclI8Z0jJhN5hJ-6" target="qYisCKZclI8Z0jJhN5hJ-16" edge="1">
                    &#xa;
                    <mxGeometry relative="1" as="geometry"/>
                    &#xa;
                </mxCell>
                &#xa;
                <mxCell id="qYisCKZclI8Z0jJhN5hJ-6" value="90" style="ellipse;whiteSpace=wrap;html=1;aspect=fixed;fontFamily=Fira Code;fillColor=#000000;" parent="qYisCKZclI8Z0jJhN5hJ-1" vertex="1">
                    &#xa;
                    <mxGeometry x="640" y="120" width="40" height="40" as="geometry"/>
                    &#xa;
                </mxCell>
                &#xa;
                <mxCell id="qYisCKZclI8Z0jJhN5hJ-7" style="edgeStyle=none;rounded=0;orthogonalLoop=1;jettySize=auto;html=1;exitX=1;exitY=0;exitDx=0;exitDy=0;entryX=0;entryY=1;entryDx=0;entryDy=0;endArrow=none;endFill=0;" parent="qYisCKZclI8Z0jJhN5hJ-1" source="qYisCKZclI8Z0jJhN5hJ-10" target="qYisCKZclI8Z0jJhN5hJ-3" edge="1">
                    &#xa;
                    <mxGeometry relative="1" as="geometry"/>
                    &#xa;
                </mxCell>
                &#xa;
                <mxCell id="qYisCKZclI8Z0jJhN5hJ-8" style="edgeStyle=none;rounded=0;orthogonalLoop=1;jettySize=auto;html=1;exitX=0;exitY=1;exitDx=0;exitDy=0;entryX=1;entryY=0;entryDx=0;entryDy=0;endArrow=none;endFill=0;" parent="qYisCKZclI8Z0jJhN5hJ-1" source="qYisCKZclI8Z0jJhN5hJ-10" target="qYisCKZclI8Z0jJhN5hJ-13" edge="1">
                    &#xa;
                    <mxGeometry relative="1" as="geometry"/>
                    &#xa;
                </mxCell>
                &#xa;
                <mxCell id="qYisCKZclI8Z0jJhN5hJ-9" style="edgeStyle=none;rounded=0;orthogonalLoop=1;jettySize=auto;html=1;exitX=1;exitY=1;exitDx=0;exitDy=0;entryX=0;entryY=0;entryDx=0;entryDy=0;endArrow=none;endFill=0;" parent="qYisCKZclI8Z0jJhN5hJ-1" source="qYisCKZclI8Z0jJhN5hJ-10" target="qYisCKZclI8Z0jJhN5hJ-11" edge="1">
                    &#xa;
                    <mxGeometry relative="1" as="geometry"/>
                    &#xa;
                </mxCell>
                &#xa;
                <mxCell id="qYisCKZclI8Z0jJhN5hJ-10" value="50" style="ellipse;whiteSpace=wrap;html=1;aspect=fixed;fontFamily=Fira Code;fillColor=#000000;" parent="qYisCKZclI8Z0jJhN5hJ-1" vertex="1">
                    &#xa;
                    <mxGeometry x="160" y="120" width="40" height="40" as="geometry"/>
                    &#xa;
                </mxCell>
                &#xa;
                <mxCell id="qYisCKZclI8Z0jJhN5hJ-11" value="60" style="ellipse;whiteSpace=wrap;html=1;aspect=fixed;fontFamily=Fira Code;fillColor=#000000;" parent="qYisCKZclI8Z0jJhN5hJ-1" vertex="1">
                    &#xa;
                    <mxGeometry x="360" y="200" width="40" height="40" as="geometry"/>
                    &#xa;
                </mxCell>
                &#xa;
                <mxCell id="qYisCKZclI8Z0jJhN5hJ-12" style="edgeStyle=none;rounded=0;orthogonalLoop=1;jettySize=auto;html=1;exitX=1;exitY=1;exitDx=0;exitDy=0;entryX=0;entryY=0;entryDx=0;entryDy=0;endArrow=none;endFill=0;" parent="qYisCKZclI8Z0jJhN5hJ-1" source="qYisCKZclI8Z0jJhN5hJ-13" target="qYisCKZclI8Z0jJhN5hJ-14" edge="1">
                    &#xa;
                    <mxGeometry relative="1" as="geometry"/>
                    &#xa;
                </mxCell>
                &#xa;
                <mxCell id="qYisCKZclI8Z0jJhN5hJ-13" value="30" style="ellipse;whiteSpace=wrap;html=1;aspect=fixed;fontFamily=Fira Code;fillColor=#CC0000;" parent="qYisCKZclI8Z0jJhN5hJ-1" vertex="1">
                    &#xa;
                    <mxGeometry x="-40" y="200" width="40" height="40" as="geometry"/>
                    &#xa;
                </mxCell>
                &#xa;
                <mxCell id="qYisCKZclI8Z0jJhN5hJ-14" value="40" style="ellipse;whiteSpace=wrap;html=1;aspect=fixed;fontFamily=Fira Code;fillColor=#000000;" parent="qYisCKZclI8Z0jJhN5hJ-1" vertex="1">
                    &#xa;
                    <mxGeometry x="120" y="280" width="40" height="40" as="geometry"/>
                    &#xa;
                </mxCell>
                &#xa;
                <mxCell id="qYisCKZclI8Z0jJhN5hJ-15" value="80" style="ellipse;whiteSpace=wrap;html=1;aspect=fixed;fontFamily=Fira Code;fillColor=#000000;" parent="qYisCKZclI8Z0jJhN5hJ-1" vertex="1">
                    &#xa;
                    <mxGeometry x="440" y="200" width="40" height="40" as="geometry"/>
                    &#xa;
                </mxCell>
                &#xa;
                <mxCell id="qYisCKZclI8Z0jJhN5hJ-16" value="100" style="ellipse;whiteSpace=wrap;html=1;aspect=fixed;fontFamily=Fira Code;fillColor=#000000;" parent="qYisCKZclI8Z0jJhN5hJ-1" vertex="1">
                    &#xa;
                    <mxGeometry x="840" y="200" width="40" height="40" as="geometry"/>
                    &#xa;
                </mxCell>
                &#xa;
                <mxCell id="qYisCKZclI8Z0jJhN5hJ-17" style="edgeStyle=none;rounded=0;orthogonalLoop=1;jettySize=auto;html=1;exitX=1;exitY=0;exitDx=0;exitDy=0;entryX=0;entryY=1;entryDx=0;entryDy=0;endArrow=none;endFill=0;" parent="qYisCKZclI8Z0jJhN5hJ-1" source="qYisCKZclI8Z0jJhN5hJ-19" target="qYisCKZclI8Z0jJhN5hJ-13" edge="1">
                    &#xa;
                    <mxGeometry relative="1" as="geometry"/>
                    &#xa;
                </mxCell>
                &#xa;
                <mxCell id="qYisCKZclI8Z0jJhN5hJ-18" style="edgeStyle=none;rounded=0;orthogonalLoop=1;jettySize=auto;html=1;exitX=1;exitY=1;exitDx=0;exitDy=0;entryX=0;entryY=0;entryDx=0;entryDy=0;endArrow=none;endFill=0;" parent="qYisCKZclI8Z0jJhN5hJ-1" source="qYisCKZclI8Z0jJhN5hJ-19" target="qYisCKZclI8Z0jJhN5hJ-20" edge="1">
                    &#xa;
                    <mxGeometry relative="1" as="geometry"/>
                    &#xa;
                </mxCell>
                &#xa;
                <mxCell id="qYisCKZclI8Z0jJhN5hJ-19" value="10" style="ellipse;whiteSpace=wrap;html=1;aspect=fixed;fontFamily=Fira Code;fillColor=#000000;" parent="qYisCKZclI8Z0jJhN5hJ-1" vertex="1">
                    &#xa;
                    <mxGeometry x="-200" y="280" width="40" height="40" as="geometry"/>
                    &#xa;
                </mxCell>
                &#xa;
                <mxCell id="qYisCKZclI8Z0jJhN5hJ-20" value="20" style="ellipse;whiteSpace=wrap;html=1;aspect=fixed;fontFamily=Fira Code;fillColor=#CC0000;" parent="qYisCKZclI8Z0jJhN5hJ-1" vertex="1">
                    &#xa;
                    <mxGeometry x="-120" y="360" width="40" height="40" as="geometry"/>
                    &#xa;
                </mxCell>
                &#xa;
                <mxCell id="qYisCKZclI8Z0jJhN5hJ-21" style="edgeStyle=none;rounded=0;orthogonalLoop=1;jettySize=auto;html=1;exitX=1;exitY=0;exitDx=0;exitDy=0;entryX=0;entryY=1;entryDx=0;entryDy=0;endArrow=none;endFill=0;" parent="qYisCKZclI8Z0jJhN5hJ-1" source="qYisCKZclI8Z0jJhN5hJ-22" target="qYisCKZclI8Z0jJhN5hJ-19" edge="1">
                    &#xa;
                    <mxGeometry relative="1" as="geometry"/>
                    &#xa;
                </mxCell>
                &#xa;
                <mxCell id="qYisCKZclI8Z0jJhN5hJ-22" value="5" style="ellipse;whiteSpace=wrap;html=1;aspect=fixed;fontFamily=Fira Code;fillColor=#CC0000;" parent="qYisCKZclI8Z0jJhN5hJ-1" vertex="1">
                    &#xa;
                    <mxGeometry x="-280" y="360" width="40" height="40" as="geometry"/>
                    &#xa;
                </mxCell>
                &#xa;
            </root>
            &#xa;
        </mxGraphModel>
        &#xa;
    </diagram>
</mxfile>